<svg xmlns="http://www.w3.org/2000/svg" class="fl-svgdocument"><path fill="none" d="M-1-1h109.606v109.606H-1z"/><path d="m92.533 82.445-8.526 8.527zl-9.727-9.727z"/><path fill="#ffb380" d="m67.314 57.045-5.885 5.885a9.17 9.17 0 0 1 5.164 8.287 9.123 9.123 0 0 1-9.127 9.127c-3.603 0-6.726-2.162-8.287-5.165l-7.086 7.086-.12.12 25.22 25.22 9.728-9.727c-3.843 0-7.086-3.123-7.086-7.086s3.123-7.085 7.086-7.085c3.844 0 7.086 3.122 7.086 7.085l8.527-8.527-9.728-9.607-.72-.72h.48c3.843 0 7.086-3.124 7.086-7.087 0-1.801-.72-3.363-1.801-4.684a7.08 7.08 0 0 0-4.685-1.8c-3.842 0-7.085 3.121-7.085 7.084v.48l-.48-.48z"/><path fill="#8dcaff" d="M49.84 53.021a9.123 9.123 0 0 1-9.127-9.126c0-3.603 2.042-6.726 5.043-8.167l-7.085-7.086-25.22 25.22 26.661 26.662 11.41-11.409c-.36.72-.48 1.561-.48 2.402 0 3.483 2.881 6.365 6.365 6.365 3.482 0 6.365-2.882 6.365-6.365s-2.883-6.366-6.366-6.366c-.84 0-1.68.121-2.401.481l10.328-10.328-7.206-7.206c-1.561 2.762-4.684 4.924-8.287 4.924"/><path fill="#c0d9b4" d="M94.155 26.661 83.707 16.213h.48c3.844 0 7.087-3.123 7.087-7.086 0-3.843-3.123-6.966-7.086-6.966-3.844 0-7.086 3.123-7.086 7.086v.48L67.374 0l-25.22 25.22-.841.96-.48.481 11.41 11.41a6.8 6.8 0 0 0-2.163-.36c-3.483 0-6.366 2.881-6.366 6.365 0 3.482 2.883 6.365 6.366 6.365s6.366-2.883 6.366-6.366c0-.6-.12-1.08-.24-1.681 0-.24-.12-.36-.12-.6l.6.6 11.048 11.048.48-.48.962-.96 8.167-8.167c-3.844 0-7.086-3.123-7.086-7.086s3.122-7.085 7.085-7.085c3.843 0 7.086 3.122 7.086 7.085z"/><path d="M56.084 42.393h.36l-.48-.6c0 .12 0 .36.12.6"/></svg>