<svg width="107.60636" height="107.60636" xmlns="http://www.w3.org/2000/svg" class="fl-svgdocument">
 <defs>
  <rect id="rect4965" height="60.515274" width="217.58301" y="25.158035" x="86.353256"/>
 </defs>
 <g>
  <title>background</title>
  <rect fill="none" id="canvas_background" height="109.60636" width="109.60636" y="-1" x="-1"/>
 </g>
 <g>
  <title>Layer 1</title>
  <g transform="matrix(0.95294163,0,0,0.95294163,-45.741197,-190.14988) " id="_WTrHMt3eZfxcQKrYJirRK">
   <path d="m145.103386,286.057179l-8.947977,8.947977l0,0l8.947977,-8.947977l-10.208256,-10.208256l0,0l10.208256,10.208256z" fill="#000000" id="_1MYZsbAYvxe5D-50H3pho"/>
   <path d="m122.859851,258.079333" fill="#000000" id="_oL3QJlwkbW1Nmdh3qAlDC"/>
   <path fill="#ffb380" d="m118.637815,259.402373l0,0l0,0l-6.175365,6.175365c3.150696,1.512334 5.419198,4.789058 5.419198,8.695922c0,5.29317 -4.284947,9.578117 -9.578117,9.578117c-3.780835,0 -7.05756,-2.268501 -8.695922,-5.419198l-7.435643,7.435643l-0.126028,0.126028l26.465849,26.465848l10.208256,-10.208256l0,0c-4.032891,0 -7.435643,-3.276724 -7.435643,-7.435643c0,-4.158919 3.276724,-7.435643 7.435643,-7.435643c4.032891,0 7.435643,3.276724 7.435643,7.435643l8.947977,-8.947977l-10.208256,-10.082228l0,0l-0.756167,-0.756167c0.126028,0 0.378084,0 0.504111,0c4.032891,0 7.435643,-3.276724 7.435643,-7.435643c0,-1.890418 -0.756167,-3.52878 -1.890418,-4.915086c-1.260278,-1.134251 -3.024668,-1.890418 -4.915086,-1.890418c-4.032891,0 -7.435643,3.276724 -7.435643,7.435643c0,0.126028 0,0.378084 0,0.504111l-0.504111,-0.504111l0,0l-8.695922,-8.82195z" id="_sK1htog-8Op55rgRI5hDg"/>
   <path fill="#8dcaff" d="m100.301305,255.180876c-5.29317,0 -9.578117,-4.284947 -9.578117,-9.578117c0,-3.780835 2.142473,-7.05756 5.29317,-8.569894l-7.435643,-7.435643l0,0l-26.465849,26.465849l27.978183,27.978183l11.972646,-11.972646c-0.378084,0.756167 -0.504111,1.638362 -0.504111,2.520557c0,3.654808 3.024668,6.679476 6.679476,6.679476c3.654808,0 6.679476,-3.024668 6.679476,-6.679476c0,-3.654808 -3.024668,-6.679476 -6.679476,-6.679476c-0.882195,0 -1.76439,0.126028 -2.520557,0.504111l10.838395,-10.838395l-7.561671,-7.561671c-1.638362,2.898641 -4.915086,5.167142 -8.695922,5.167142z" id="_OMWHsyuaoclMfPE9tvM7V"/>
   <path fill="#c0d9b4" d="m146.805334,227.518081l-10.964423,-10.964423c0.126028,0 0.378084,0 0.504111,0c4.032891,0 7.435643,-3.276724 7.435643,-7.435643c0,-4.032891 -3.276724,-7.309615 -7.435643,-7.309615c-4.032891,0 -7.435643,3.276724 -7.435643,7.435643c0,0.126028 0,0.378084 0,0.504111l-10.208256,-10.208256l-26.465848,26.465848l-0.882195,1.008223l-0.504111,0.504111l11.972646,11.972646c-0.756167,-0.252056 -1.512334,-0.378084 -2.268501,-0.378084c-3.654808,0 -6.679476,3.024668 -6.679476,6.679476c0,3.654808 3.024668,6.679476 6.679476,6.679476c3.654808,0 6.679476,-3.024668 6.679476,-6.679476c0,-0.630139 -0.126028,-1.134251 -0.252056,-1.76439c0,-0.252056 -0.126028,-0.378084 -0.126028,-0.630139l0.630139,0.630139l11.594562,11.594562l0.504111,-0.504111l1.008223,-1.008223l8.569894,-8.569894c0,0 0,0 0,0c-4.032891,0 -7.435643,-3.276724 -7.435643,-7.435643c0,-4.158919 3.276724,-7.435643 7.435643,-7.435643c4.032891,0 7.435643,3.276724 7.435643,7.435643c0,0 0,0 0,0l10.208256,-10.586339z" id="_jAk8zpl6O80_21e1JT4hk"/>
   <path d="m118.574817,259.339383" fill="#000000" id="_GDSYpBtYoW2GJpRZoPCot"/>
   <path d="m118.574817,259.339383" fill="#000000" id="_NldltLD5fZQlQrgFsakaC"/>
   <path fill="#000000" d="m106.854006,244.027149l0.378084,0l-0.504111,-0.630139c0,0.126028 0,0.378084 0.126028,0.630139z" id="_TbX_b0jxU8J0Cb3YWVDy6"/>
  </g>
 </g>
</svg>