<svg fill="currentColor" xmlns="http://www.w3.org/2000/svg" viewBox="0 0 106 30"><path d="M77.378 0q2.953 0 4.68 1.116 1.728 1.116 2.484 3.168.792 2.052.792 4.932v11.088q0 2.844-.792 4.969-.756 2.124-2.483 3.311-1.728 1.152-4.681 1.152-2.952 0-4.716-1.152-1.763-1.152-2.52-3.275-.755-2.16-.756-5.04V9.216q0-2.88.757-4.932.791-2.088 2.52-3.168Q74.425 0 77.377 0M11.305 3.276H4.068v9.648h5.869v2.88H4.068v10.692h7.308v2.916H0V.252h11.305zM29.42 29.412h-3.853l-1.332-7.344h-5.94l-1.403 7.344h-3.817L19.27.252h3.923zm7.026-2.916H43.9v2.916H32.38V.252h4.068zm14.309 0h7.452v2.916h-11.52V.252h4.068zm14.453 2.916h-3.996V.252h3.996zM101.133.062q1.449 0 2.449.75 1 .7 1.5 2.1.5 1.35.5 3.3v23.2h-3.649v-22.4q0-2.25-.701-3.15-.65-.95-2.05-.95-1.25 0-2.55.75t-2.45 1.95v23.8h-3.65V.512h3.65v3a12.4 12.4 0 0 1 3.15-2.45 7.53 7.53 0 0 1 3.801-1M77.378 3.169q-1.62 0-2.484.648-.828.612-1.116 1.8-.288 1.152-.288 2.772v12.78q0 1.62.288 2.844.288 1.188 1.116 1.872.864.648 2.484.648t2.448-.648q.828-.684 1.116-1.872.288-1.224.289-2.844V8.388q0-1.62-.289-2.772-.288-1.188-1.116-1.8-.828-.648-2.448-.648M18.837 19.152h4.86l-2.448-13.14z"/></svg>
