<svg xmlns="http://www.w3.org/2000/svg" height="24" viewBox="0 -960 960 960" width="24"><path d="M376-178q-18-33-31.5-68.5T322-320H204q29 50 72.5 87t99.5 55ZM170-400h136q-3-20-4.5-39.5T300-480q0-21 1.5-40.5T306-560H170q-5 20-7.5 39.5T160-480q0 21 2.5 40.5T170-400Zm34-240h118q9-38 22.5-73.5T376-782q-56 18-99.5 55T204-640Zm200 0h152q-12-44-31-83t-45-75q-26 36-45 75t-31 83Zm234 0h118q-29-50-72.5-87T584-782q18 33 31.5 68.5T638-640ZM480-80q-82 0-155-31.5t-127.5-86Q143-252 111.5-325T80-480q0-83 31.5-155.5t86-127Q252-817 325-848.5T480-880q83 0 155.5 31.5t127 86q54.5 54.5 86 127T880-480q0 10-.5 20t-1.5 20h-81q2-10 2.5-19.5t.5-20.5q0-21-2.5-40.5T790-560H654q3 20 4.5 39.5T660-480v20.5q0 9.5-1 19.5h-80q1-10 1-19.5V-480q0-21-1.5-40.5T574-560H386q-3 20-4.5 39.5T380-480q0 21 1.5 40.5T386-400h134v80H404q12 44 31 83t45 75q11-16 21-32.5t19-33.5v146q-10 1-19.5 1.5T480-80Zm318-25L680-223v89h-80v-226h226v80h-90l118 118-56 57Z"/></svg>