<?xml version="1.0" standalone="no"?>
<!DOCTYPE svg PUBLIC "-//W3C//DTD SVG 20010904//EN"
 "http://www.w3.org/TR/2001/REC-SVG-20010904/DTD/svg10.dtd">
<svg version="1.0" xmlns="http://www.w3.org/2000/svg"
 width="32.000000pt" height="32.000000pt" viewBox="0 0 32.000000 32.000000"
 preserveAspectRatio="xMidYMid meet">

<g transform="translate(0.000000,32.000000) scale(0.100000,-0.100000)"
fill="#000000" stroke="none">
<path d="M150 290 c0 -5 -15 -10 -34 -10 -19 0 -38 -4 -41 -10 -4 -6 11 -10
37 -11 57 -1 22 -17 -39 -18 -24 -1 -43 -6 -43 -11 0 -7 20 -9 60 -4 42 5 60
3 60 -5 0 -6 -15 -11 -34 -11 -19 0 -38 -4 -41 -10 -4 -6 12 -10 40 -10 28 0
44 -4 40 -10 -3 -5 -24 -10 -46 -10 -22 0 -39 -5 -39 -11 0 -8 13 -9 40 -5 25
4 40 2 40 -4 0 -5 -6 -10 -14 -10 -8 0 -18 -4 -21 -10 -3 -6 15 -9 47 -8 29 1
68 -2 86 -6 19 -5 32 -4 32 2 0 14 -25 22 -66 22 -19 0 -34 5 -34 11 0 6 15 9
34 8 19 -2 38 0 42 4 8 7 -9 11 -38 8 -10 -1 -26 2 -35 8 -15 8 -10 10 23 11
33 0 43 4 47 20 3 12 14 20 27 20 11 0 18 5 15 10 -3 6 -14 10 -25 10 -10 0
-20 7 -24 15 -3 9 -18 15 -35 15 -16 0 -33 5 -36 10 -3 6 -10 10 -16 10 -5 0
-9 -4 -9 -10z m70 -45 c-9 -10 -9 -15 -1 -15 6 0 11 -4 11 -10 0 -5 -11 -10
-25 -10 -14 0 -25 5 -25 10 0 6 5 10 12 10 6 0 3 7 -8 15 -18 14 -17 14 15 15
29 0 32 -2 21 -15z"/>
<path d="M50 120 c0 -5 9 -10 19 -10 11 0 23 5 26 10 4 6 -5 10 -19 10 -14 0
-26 -4 -26 -10z"/>
<path d="M100 100 c-17 -11 -19 -11 70 -13 58 -2 65 -4 68 -23 4 -25 -19 -34
-90 -34 -46 0 -69 12 -47 26 11 6 -6 23 -23 24 -13 0 -9 -47 5 -58 18 -15 174
-3 181 14 9 23 -11 61 -36 67 -35 10 -111 8 -128 -3z"/>
<path d="M135 60 c3 -5 22 -10 41 -10 19 0 34 5 34 10 0 6 -18 10 -41 10 -24
0 -38 -4 -34 -10z"/>
</g>
</svg>
