<?xml version="1.0" encoding="UTF-8" standalone="no"?>
<!DOCTYPE svg PUBLIC "-//W3C//DTD SVG 1.1//EN" "http://www.w3.org/Graphics/SVG/1.1/DTD/svg11.dtd">
<svg xmlns="http://www.w3.org/2000/svg" version="1.1" viewBox="0 0 80 80">
<g stroke-width="2.0" fill="none" stroke-linecap="butt">
<path stroke="#7d8cad" vector-effect="non-scaling-stroke" d="
  M 2.75 1.21
  Q 0.21 2.77 0.40 5.70
  Q 0.50 7.21 0.50 7.32
  Q 0.50 41.16 0.50 75.00
  Q 0.50 76.11 0.79 76.75"
/>
<path stroke="#ab90ab" vector-effect="non-scaling-stroke" d="
  M 0.79 76.75
  Q 1.75 79.44 4.00 79.50
  Q 24.25 80.07 64.00 79.46"
/>
<path stroke="#8289a0" vector-effect="non-scaling-stroke" d="
  M 64.00 79.46
  Q 69.05 79.52 74.10 79.51
  Q 76.49 79.50 77.69 78.63
  Q 79.50 77.32 79.50 75.00
  Q 79.50 42.32 79.50 9.63
  Q 79.50 4.60 79.30 3.89
  Q 78.32 0.50 73.50 0.50
  Q 39.75 0.50 6.00 0.50
  Q 3.82 0.50 2.75 1.21"
/>
<path stroke="#362650" vector-effect="non-scaling-stroke" d="
  M 64.00 79.46
  Q 63.03 77.10 65.56 77.06
  Q 69.01 77.02 70.77 74.51
  Q 72.99 71.37 75.71 68.66
  C 75.94 68.43 76.08 68.14 76.11 67.82
  Q 76.39 64.69 76.34 61.55
  Q 76.31 59.49 76.94 56.55
  Q 77.86 52.21 76.75 47.75
  Q 76.11 45.20 76.42 36.26
  Q 76.52 33.39 76.14 32.27
  Q 75.10 29.16 71.25 31.25
  Q 68.43 32.78 70.44 35.81
  Q 71.40 37.26 71.54 39.00"
/>
<path stroke="#53386d" vector-effect="non-scaling-stroke" d="
  M 71.54 39.00
  Q 69.62 40.36 67.25 39.96"
/>
<path stroke="#362650" vector-effect="non-scaling-stroke" d="
  M 67.25 39.96
  Q 66.17 39.41 65.75 37.75
  Q 65.17 35.45 63.04 33.18
  C 62.80 32.92 62.50 32.75 62.20 32.72
  Q 61.05 32.61 60.25 33.46"
/>
<path stroke="#6a4978" vector-effect="non-scaling-stroke" d="
  M 60.25 33.46
  Q 59.44 33.34 59.46 34.00"
/>
<path stroke="#29275e" vector-effect="non-scaling-stroke" d="
  M 59.46 34.00
  Q 57.10 34.20 58.01 35.72
  Q 58.65 36.81 58.73 36.98
  Q 60.36 40.40 63.51 42.53
  C 63.78 42.72 63.94 43.01 63.92 43.31
  Q 63.73 46.20 61.32 45.76
  Q 60.77 45.66 58.86 44.36
  Q 57.60 43.50 55.99 43.49
  Q 55.86 43.48 55.06 43.76
  Q 54.58 43.92 54.23 43.44
  Q 54.00 43.11 53.52 42.87
  Q 52.94 42.58 52.39 41.63
  C 52.02 40.97 51.33 40.55 50.57 40.52
  Q 47.81 40.41 48.00 38.29
  C 48.06 37.57 47.72 36.87 47.12 36.47
  Q 44.52 34.75 42.31 35.09
  C 42.00 35.13 41.68 35.05 41.44 34.86
  Q 40.25 33.90 38.74 34.14
  C 38.43 34.19 38.12 34.11 37.88 33.92
  Q 37.25 33.44 36.49 33.30
  C 36.24 33.26 35.91 33.33 35.57 33.51
  Q 33.91 34.40 33.96 32.25"
/>
<path stroke="#2b2d7a" vector-effect="non-scaling-stroke" d="
  M 33.96 32.25
  Q 35.78 28.71 34.75 23.50
  Q 33.96 19.52 31.56 15.19
  Q 29.83 12.06 26.79 11.00"
/>
<path stroke="#534d88" vector-effect="non-scaling-stroke" d="
  M 26.79 11.00
  L 26.25 9.29"
/>
<path stroke="#132461" vector-effect="non-scaling-stroke" d="
  M 26.25 9.29
  Q 26.68 9.25 27.00 8.96"
/>
<path stroke="#534d88" vector-effect="non-scaling-stroke" d="
  M 27.00 8.96
  Q 27.89 8.87 28.50 8.21"
/>
<path stroke="#132461" vector-effect="non-scaling-stroke" d="
  M 28.50 8.21
  Q 31.77 8.09 29.13 4.97
  C 28.74 4.51 28.05 4.38 27.44 4.65
  L 23.75 6.29"
/>
<path stroke="#162c7e" vector-effect="non-scaling-stroke" d="
  M 23.75 6.29
  Q 21.55 5.88 18.69 4.06
  Q 16.08 2.41 12.25 3.04"
/>
<path stroke="#082252" vector-effect="non-scaling-stroke" d="
  M 12.25 3.04
  Q 8.75 3.77 5.93 1.98
  Q 5.15 1.48 4.41 1.38
  Q 3.58 1.28 2.75 1.21"
/>
<path stroke="#875191" vector-effect="non-scaling-stroke" d="
  M 59.46 34.00
  L 64.46 41.00"
/>
<path stroke="#836daf" vector-effect="non-scaling-stroke" d="
  M 64.46 41.00
  Q 65.15 42.67 65.04 44.50"
/>
<path stroke="#9e91b9" vector-effect="non-scaling-stroke" d="
  M 65.04 44.50
  L 63.71 49.50"
/>
<path stroke="#836daf" vector-effect="non-scaling-stroke" d="
  M 63.71 49.50
  L 61.96 51.50"
/>
<path stroke="#704085" vector-effect="non-scaling-stroke" d="
  M 61.96 51.50
  L 60.46 53.25"
/>
<path stroke="#704085" vector-effect="non-scaling-stroke" d="
  M 60.46 53.25
  Q 59.63 53.28 59.17 52.57
  Q 58.29 51.25 56.81 50.99
  C 56.46 50.93 56.16 50.79 55.96 50.58
  L 54.25 48.79"
/>
<path stroke="#6f55a0" vector-effect="non-scaling-stroke" d="
  M 54.25 48.79
  Q 53.52 47.23 52.00 46.46"
/>
<path stroke="#5b4194" vector-effect="non-scaling-stroke" d="
  M 52.00 46.46
  Q 51.68 45.62 50.19 43.56
  Q 49.20 42.20 47.79 42.50"
/>
<path stroke="#836daf" vector-effect="non-scaling-stroke" d="
  M 47.79 42.50
  Q 43.28 35.79 35.00 37.75
  Q 34.00 37.99 32.79 37.50"
/>
<path stroke="#9e91b9" vector-effect="non-scaling-stroke" d="
  M 32.79 37.50
  Q 32.47 37.12 32.04 36.95
  C 31.80 36.85 31.46 36.90 31.14 37.09
  Q 30.17 37.67 29.00 37.79"
/>
<path stroke="#483592" vector-effect="non-scaling-stroke" d="
  M 33.96 32.25
  Q 31.97 35.31 28.25 35.54"
/>
<path stroke="#954481" vector-effect="non-scaling-stroke" d="
  M 73.54 44.75
  L 73.05 54.76
  Q 73.01 55.50 73.00 54.74
  Q 72.95 51.59 72.04 54.00"
/>
<path stroke="#b162a0" vector-effect="non-scaling-stroke" d="
  M 72.04 54.00
  Q 71.87 50.66 71.72 47.31
  Q 71.58 43.93 69.04 41.75"
/>
<path stroke="#ad7ebe" vector-effect="non-scaling-stroke" d="
  M 69.04 41.75
  Q 68.80 40.89 67.75 41.00
  Q 66.66 41.12 65.50 40.21"
/>
<path stroke="#b162a0" vector-effect="non-scaling-stroke" d="
  M 65.50 40.21
  L 65.54 40.00"
/>
<path stroke="#7d3f77" vector-effect="non-scaling-stroke" d="
  M 65.54 40.00
  L 67.25 39.96"
/>
<path stroke="#725bbc" vector-effect="non-scaling-stroke" d="
  M 26.79 11.00
  Q 26.55 11.53 26.00 11.54"
/>
<path stroke="#112f8b" vector-effect="non-scaling-stroke" d="
  M 12.25 3.04
  Q 5.17 3.78 7.40 10.47
  C 7.48 10.71 7.71 10.95 8.03 11.12
  L 15.02 14.78
  Q 15.49 15.02 14.97 15.25
  Q 11.66 16.73 13.54 19.78
  C 13.73 20.08 14.00 20.29 14.29 20.35
  L 19.06 21.39
  C 19.35 21.46 19.57 21.68 19.61 21.95
  Q 20.06 25.75 23.80 26.19
  Q 24.72 26.30 25.63 26.62
  Q 27.98 27.43 27.33 25.04
  C 27.26 24.76 27.01 24.53 26.70 24.46
  L 23.58 23.77
  C 23.19 23.68 23.01 23.23 23.23 22.89
  Q 25.70 19.12 22.00 19.09
  Q 19.92 19.08 17.90 18.21
  Q 16.52 17.61 17.82 16.86
  Q 19.33 15.98 21.25 16.25
  Q 23.91 16.62 22.19 14.56
  Q 21.29 13.50 19.95 13.22
  Q 16.90 12.57 14.68 10.53
  C 14.50 10.37 14.48 10.07 14.64 9.81
  L 16.07 7.47
  C 16.25 7.17 16.51 6.98 16.75 6.97
  Q 19.77 6.88 21.85 8.95
  Q 21.89 9.00 22.41 9.74
  Q 22.94 10.50 24.00 10.21"
/>
<path stroke="#4e5095" vector-effect="non-scaling-stroke" d="
  M 24.00 10.21
  Q 24.83 11.15 26.00 11.54"
/>
<path stroke="#273087" vector-effect="non-scaling-stroke" d="
  M 26.00 11.54
  Q 32.28 17.14 33.30 25.24
  Q 33.77 28.96 32.75 31.16
  Q 31.06 34.81 26.06 33.44
  Q 23.63 32.77 25.06 30.31
  Q 26.94 27.10 27.43 30.47
  Q 27.48 30.79 27.44 31.53
  Q 27.36 32.87 28.39 32.33
  C 28.65 32.19 28.87 31.93 29.00 31.60
  Q 30.26 28.33 28.08 27.66
  Q 26.58 27.21 25.08 28.21
  Q 22.65 29.84 23.66 33.01
  Q 24.12 34.45 25.41 35.01
  Q 26.71 35.58 28.25 35.54"
/>
<path stroke="#242a6b" vector-effect="non-scaling-stroke" d="
  M 28.25 35.54
  Q 29.01 35.92 28.46 36.73
  Q 27.74 37.79 29.00 37.79"
/>
<path stroke="#7d8cad" vector-effect="non-scaling-stroke" d="
  M 29.00 37.79
  L 25.75 39.54"
/>
<path stroke="#273087" vector-effect="non-scaling-stroke" d="
  M 25.75 39.54
  Q 22.51 40.06 20.25 42.54"
/>
<path stroke="#0f276e" vector-effect="non-scaling-stroke" d="
  M 20.25 42.54
  Q 11.66 47.23 13.29 56.42
  Q 14.23 61.75 14.23 61.77
  Q 14.18 67.37 7.84 68.68
  Q 5.68 69.13 3.96 71.24
  Q 3.24 72.13 4.38 72.19
  Q 8.52 72.41 4.20 72.53
  C 3.89 72.54 3.69 72.87 3.82 73.15
  Q 4.67 74.99 3.00 75.96"
/>
<path stroke="#4e5095" vector-effect="non-scaling-stroke" d="
  M 3.00 75.96
  Q 2.58 75.93 2.46 76.25"
/>
<path stroke="#31295d" vector-effect="non-scaling-stroke" d="
  M 2.46 76.25
  Q 1.84 77.05 0.79 76.75"
/>
<path stroke="#7c5492" vector-effect="non-scaling-stroke" d="
  M 2.46 76.25
  Q 3.08 76.49 3.35 77.03
  C 3.51 77.37 3.77 77.58 4.00 77.57
  L 7.75 77.46"
/>
<path stroke="#764885" vector-effect="non-scaling-stroke" d="
  M 7.75 77.46
  Q 9.42 77.51 11.09 77.51
  Q 11.81 77.51 14.34 78.01
  Q 15.73 78.28 17.75 78.25
  Q 28.15 78.07 38.56 77.81
  Q 40.16 77.77 41.00 77.21"
/>
<path stroke="#945083" vector-effect="non-scaling-stroke" d="
  M 41.00 77.21
  L 43.00 77.29"
/>
<path stroke="#773264" vector-effect="non-scaling-stroke" d="
  M 43.00 77.29
  L 58.26 78.00
  C 58.55 78.01 58.86 77.88 59.09 77.63
  Q 60.70 75.92 61.66 75.84
  Q 64.12 75.63 65.80 73.82
  Q 68.06 71.40 69.95 68.70
  Q 70.32 68.17 70.95 68.14
  C 71.27 68.13 71.54 67.97 71.66 67.73
  Q 72.27 66.49 72.91 65.27
  Q 73.57 64.03 73.64 62.69
  Q 74.08 53.72 73.54 44.75"
/>
<path stroke="#7d3f77" vector-effect="non-scaling-stroke" d="
  M 73.54 44.75
  Q 73.83 39.27 74.66 33.85
  Q 74.76 33.16 74.59 32.66
  Q 74.07 31.18 73.00 32.75
  Q 72.29 33.79 73.04 35.54
  C 73.14 35.79 73.05 36.08 72.81 36.22
  Q 71.38 37.08 71.54 39.00"
/>
<path stroke="#5a52a4" vector-effect="non-scaling-stroke" d="
  M 28.50 8.21
  Q 28.25 6.75 27.00 6.54
  C 26.70 6.49 26.42 6.69 26.38 6.99
  Q 26.20 8.07 27.00 8.96"
/>
<path stroke="#5a52a4" vector-effect="non-scaling-stroke" d="
  M 26.25 9.29
  Q 25.04 8.53 24.04 9.50"
/>
<path stroke="#1d319a" vector-effect="non-scaling-stroke" d="
  M 23.75 6.29
  Q 23.48 7.94 24.04 9.50"
/>
<path stroke="#5c5ac0" vector-effect="non-scaling-stroke" d="
  M 24.04 9.50
  L 24.00 10.21"
/>
<path stroke="#945083" vector-effect="non-scaling-stroke" d="
  M 65.54 40.00
  Q 63.64 38.31 62.31 35.19
  Q 61.83 34.06 60.25 33.46"
/>
<path stroke="#c48fc9" vector-effect="non-scaling-stroke" d="
  M 65.50 40.21
  Q 64.66 40.26 64.46 41.00"
/>
<path stroke="#b162a0" vector-effect="non-scaling-stroke" d="
  M 57.96 58.00
  Q 58.32 56.89 59.69 55.69
  Q 60.57 54.91 59.50 54.04"
/>
<path stroke="#dccff1" vector-effect="non-scaling-stroke" d="
  M 32.79 37.50
  Q 32.93 38.75 32.05 39.00
  Q 31.43 39.18 31.17 39.38
  Q 29.92 40.33 28.50 40.88
  Q 26.79 41.53 25.98 42.37
  Q 23.22 45.19 21.46 48.75"
/>
<path stroke="#b4a2d6" vector-effect="non-scaling-stroke" d="
  M 21.46 48.75
  Q 20.69 48.72 20.87 49.33
  Q 21.16 50.35 21.10 51.41
  Q 21.08 51.76 21.07 53.09
  Q 21.04 54.87 19.31 54.56
  C 18.99 54.50 18.71 54.30 18.57 54.01
  Q 17.52 51.96 18.93 50.13
  C 19.15 49.85 19.25 49.53 19.22 49.26
  Q 19.10 48.08 18.46 47.00"
/>
<path stroke="#898ebc" vector-effect="non-scaling-stroke" d="
  M 18.46 47.00
  L 18.79 45.75"
/>
<path stroke="#a197d5" vector-effect="non-scaling-stroke" d="
  M 18.79 45.75
  L 25.75 39.54"
/>
<path stroke="#c48fc9" vector-effect="non-scaling-stroke" d="
  M 69.04 41.75
  Q 69.47 47.93 67.36 53.72
  C 67.27 53.99 66.99 54.15 66.69 54.13
  Q 64.78 54.00 63.25 55.04"
/>
<path stroke="#ad7ebe" vector-effect="non-scaling-stroke" d="
  M 63.25 55.04
  Q 61.03 55.70 61.69 53.44
  Q 62.10 52.01 61.96 51.50"
/>
<path stroke="#dccff1" vector-effect="non-scaling-stroke" d="
  M 63.71 49.50
  Q 63.34 51.90 65.28 51.20
  C 65.58 51.09 65.83 50.85 65.96 50.54
  Q 67.10 47.97 67.03 45.15
  Q 67.01 44.42 66.69 43.94
  Q 65.85 42.70 65.04 44.50"
/>
<path stroke="#8567be" vector-effect="non-scaling-stroke" d="
  M 52.00 46.46
  Q 50.23 47.48 49.25 49.29"
/>
<path stroke="#8652a3" vector-effect="non-scaling-stroke" d="
  M 49.25 49.29
  Q 46.97 49.82 48.21 52.25"
/>
<path stroke="#7e479c" vector-effect="non-scaling-stroke" d="
  M 48.21 52.25
  Q 47.57 51.63 47.35 50.81
  Q 47.03 49.57 46.82 49.31
  Q 45.71 47.93 44.00 49.79"
/>
<path stroke="#5b4194" vector-effect="non-scaling-stroke" d="
  M 44.00 49.79
  Q 42.24 48.40 42.00 47.75
  Q 41.27 45.77 40.46 47.75"
/>
<path stroke="#8567be" vector-effect="non-scaling-stroke" d="
  M 40.46 47.75
  Q 36.55 45.65 32.25 46.46"
/>
<path stroke="#b4a2d6" vector-effect="non-scaling-stroke" d="
  M 32.25 46.46
  Q 25.38 47.68 25.00 54.73
  C 24.97 55.29 25.50 55.72 26.04 55.57
  Q 28.73 54.84 28.40 52.31
  C 28.36 52.04 28.52 51.77 28.78 51.64
  Q 29.83 51.12 29.25 49.93
  C 29.14 49.70 29.22 49.41 29.44 49.26
  L 32.75 46.96"
/>
<path stroke="#8567be" vector-effect="non-scaling-stroke" d="
  M 32.75 46.96
  Q 35.15 46.16 36.88 47.65
  C 37.11 47.85 37.42 47.97 37.75 47.99
  Q 39.18 48.08 39.25 49.71"
/>
<path stroke="#5b4194" vector-effect="non-scaling-stroke" d="
  M 39.25 49.71
  Q 35.41 51.29 38.54 53.76
  C 38.83 53.99 38.96 54.31 38.87 54.55
  Q 38.56 55.35 36.83 53.23
  Q 36.34 52.63 36.29 53.41
  Q 36.22 54.65 35.17 55.46
  C 34.93 55.65 34.81 55.95 34.86 56.23
  Q 35.29 58.58 33.00 58.96"
/>
<path stroke="#997fcc" vector-effect="non-scaling-stroke" d="
  M 33.00 58.96
  Q 30.25 54.66 34.29 52.45
  Q 34.60 52.29 34.79 52.10
  Q 35.80 51.08 34.16 51.47
  Q 33.82 51.55 33.50 51.74
  Q 28.04 54.90 32.71 59.25"
/>
<path stroke="#5b4194" vector-effect="non-scaling-stroke" d="
  M 32.71 59.25
  Q 32.48 60.16 33.00 60.96"
/>
<path stroke="#8567be" vector-effect="non-scaling-stroke" d="
  M 33.00 60.96
  L 31.25 61.29"
/>
<path stroke="#997fcc" vector-effect="non-scaling-stroke" d="
  M 31.25 61.29
  Q 28.63 60.42 28.25 58.00
  Q 28.02 56.54 26.93 56.60
  C 26.62 56.61 26.34 56.81 26.20 57.12
  Q 25.53 58.57 26.85 59.65
  Q 28.57 61.06 30.25 62.54"
/>
<path stroke="#8567be" vector-effect="non-scaling-stroke" d="
  M 30.25 62.54
  L 30.25 62.71"
/>
<path stroke="#5b4194" vector-effect="non-scaling-stroke" d="
  M 30.25 62.71
  Q 29.54 63.30 28.72 63.15
  C 28.30 63.07 27.95 63.08 27.77 63.17
  Q 27.25 63.43 26.96 64.00"
/>
<path stroke="#7f5ab0" vector-effect="non-scaling-stroke" d="
  M 26.96 64.00
  Q 25.85 64.12 26.04 63.01
  Q 26.64 59.54 23.50 60.71"
/>
<path stroke="#997fcc" vector-effect="non-scaling-stroke" d="
  M 23.50 60.71
  Q 21.73 61.06 20.96 62.75"
/>
<path stroke="#5e47b0" vector-effect="non-scaling-stroke" d="
  M 20.96 62.75
  Q 20.64 63.18 20.26 63.14
  C 20.04 63.11 19.85 62.82 19.81 62.44
  Q 19.69 61.21 18.29 61.25"
/>
<path stroke="#463e97" vector-effect="non-scaling-stroke" d="
  M 18.29 61.25
  Q 15.20 54.32 17.81 47.31
  Q 17.95 46.95 18.46 47.00"
/>
<path stroke="#9a5194" vector-effect="non-scaling-stroke" d="
  M 60.46 53.25
  Q 60.15 53.83 59.50 54.04"
/>
<path stroke="#b162a0" vector-effect="non-scaling-stroke" d="
  M 59.50 54.04
  Q 58.72 53.82 58.04 53.39
  Q 56.32 52.31 54.62 55.26
  C 54.30 55.82 54.42 56.53 54.91 56.95
  Q 55.94 57.83 56.27 55.86
  Q 56.33 55.51 56.49 55.33
  Q 56.78 55.01 57.07 55.12
  C 57.29 55.21 57.32 55.55 57.12 55.82
  Q 56.02 57.33 57.96 58.00"
/>
<path stroke="#9a5194" vector-effect="non-scaling-stroke" d="
  M 57.96 58.00
  Q 56.16 61.24 54.00 58.70
  Q 53.79 58.46 53.21 58.18
  L 52.39 57.79
  C 52.17 57.69 52.12 57.36 52.28 57.08
  Q 53.00 55.84 51.75 55.04"
/>
<path stroke="#997fcc" vector-effect="non-scaling-stroke" d="
  M 47.79 42.50
  Q 47.25 43.72 46.83 44.99
  Q 46.68 45.45 46.37 45.79
  Q 43.77 48.62 45.36 45.00
  Q 45.54 44.59 45.92 44.23
  Q 48.07 42.12 44.81 43.06
  Q 42.67 43.68 42.00 42.00
  Q 40.95 39.37 38.30 39.62
  Q 37.82 39.67 37.35 39.48
  Q 34.93 38.50 34.05 40.76
  Q 33.92 41.11 33.82 42.40
  Q 33.69 44.10 32.20 43.48
  C 31.86 43.33 31.53 43.28 31.26 43.34
  Q 27.10 44.25 24.81 48.31
  Q 23.38 50.87 21.46 48.75"
/>
<path stroke="#9a66af" vector-effect="non-scaling-stroke" d="
  M 54.25 48.79
  Q 53.89 52.77 50.28 51.60
  C 49.96 51.50 49.70 51.28 49.57 51.00
  Q 49.19 50.19 49.25 49.29"
/>
<path stroke="#ac558c" vector-effect="non-scaling-stroke" d="
  M 43.00 77.29
  L 54.00 75.71"
/>
<path stroke="#9e3b7c" vector-effect="non-scaling-stroke" d="
  M 54.00 75.71
  Q 57.41 76.45 60.69 75.44
  Q 62.54 74.86 63.19 74.19
  Q 66.32 70.91 68.96 67.22
  Q 70.73 64.76 70.46 61.75"
/>
<path stroke="#ac558c" vector-effect="non-scaling-stroke" d="
  M 72.04 54.00
  Q 72.26 58.08 70.46 61.75"
/>
<path stroke="#bb5a9b" vector-effect="non-scaling-stroke" d="
  M 70.46 61.75
  Q 69.79 62.23 68.81 63.81
  Q 68.33 64.60 67.53 64.39
  C 67.29 64.32 67.09 64.05 67.03 63.69
  L 66.46 60.25"
/>
<path stroke="#a95799" vector-effect="non-scaling-stroke" d="
  M 66.46 60.25
  Q 67.22 57.72 65.25 56.71"
/>
<path stroke="#b162a0" vector-effect="non-scaling-stroke" d="
  M 65.25 56.71
  L 63.25 55.04"
/>
<path stroke="#323296" vector-effect="non-scaling-stroke" d="
  M 18.79 45.75
  Q 18.99 43.93 20.25 42.54"
/>
<path stroke="#323296" vector-effect="non-scaling-stroke" d="
  M 18.29 61.25
  Q 17.57 62.05 17.81 62.69
  Q 20.37 69.38 14.25 72.46"
/>
<path stroke="#534696" vector-effect="non-scaling-stroke" d="
  M 14.25 72.46
  L 11.75 74.21"
/>
<path stroke="#5a52a4" vector-effect="non-scaling-stroke" d="
  M 11.75 74.21
  Q 7.51 75.77 3.00 75.96"
/>
<path stroke="#7f5ab0" vector-effect="non-scaling-stroke" d="
  M 28.75 69.79
  Q 29.56 72.06 32.01 72.45
  Q 35.24 72.95 38.51 73.21
  Q 38.90 73.24 39.42 73.51
  Q 40.70 74.16 41.79 73.00"
/>
<path stroke="#aa6bad" vector-effect="non-scaling-stroke" d="
  M 52.25 74.04
  Q 46.90 74.57 44.44 75.94
  Q 42.31 77.12 41.16 75.40
  C 40.96 75.11 40.62 74.95 40.27 75.00
  Q 36.52 75.53 39.27 76.17
  Q 40.31 76.41 41.00 77.21"
/>
<path stroke="#936fbd" vector-effect="non-scaling-stroke" d="
  M 7.75 77.46
  L 15.75 75.29"
/>
<path stroke="#a687cb" vector-effect="non-scaling-stroke" d="
  M 15.75 75.29
  L 23.37 72.29
  Q 23.90 72.08 24.31 72.11
  Q 26.23 72.21 25.00 71.00
  Q 23.87 69.89 20.31 71.56
  L 14.50 74.29"
/>
<path stroke="#936fbd" vector-effect="non-scaling-stroke" d="
  M 14.50 74.29
  L 11.75 74.21"
/>
<path stroke="#92468e" vector-effect="non-scaling-stroke" d="
  M 48.21 52.25
  L 51.75 55.04"
/>
<path stroke="#92468e" vector-effect="non-scaling-stroke" d="
  M 51.75 55.04
  Q 50.35 56.82 50.46 59.00
  C 50.47 59.28 50.62 59.58 50.88 59.83
  Q 52.24 61.15 50.46 62.22
  Q 49.41 62.85 48.35 63.43
  Q 47.19 64.06 47.97 64.50
  C 48.22 64.63 48.56 64.58 48.83 64.37
  Q 51.02 62.63 53.75 62.00
  Q 54.18 61.90 56.06 61.81
  Q 58.36 61.71 60.16 60.38
  C 60.40 60.20 60.59 59.92 60.70 59.58
  Q 61.72 56.53 65.25 56.71"
/>
<path stroke="#9c3e89" vector-effect="non-scaling-stroke" d="
  M 66.46 60.25
  L 59.85 66.15
  Q 59.47 66.50 59.01 66.59
  Q 54.96 67.46 51.75 71.25
  Q 50.52 72.70 48.62 72.31
  Q 46.39 71.86 45.65 71.90
  Q 44.07 71.99 42.50 72.04"
/>
<path stroke="#7e479c" vector-effect="non-scaling-stroke" d="
  M 42.50 72.04
  Q 42.35 71.71 42.56 71.51
  Q 42.73 71.34 42.52 71.33
  L 32.75 70.79"
/>
<path stroke="#6b4faf" vector-effect="non-scaling-stroke" d="
  M 27.75 68.96
  Q 26.80 69.24 25.90 68.57
  C 25.56 68.31 25.10 68.26 24.68 68.42
  L 14.25 72.46"
/>
<path stroke="#6f55a0" vector-effect="non-scaling-stroke" d="
  M 40.46 47.75
  L 42.44 51.36
  C 42.64 51.73 42.76 52.06 42.75 52.25
  Q 42.71 53.74 41.82 53.29
  Q 41.40 53.08 41.06 52.37
  Q 40.35 50.91 39.25 49.71"
/>
<path stroke="#c8b7e3" vector-effect="non-scaling-stroke" d="
  M 32.75 46.96
  Q 32.83 46.42 32.25 46.46"
/>
<path stroke="#6b4faf" vector-effect="non-scaling-stroke" d="
  M 28.50 67.96
  Q 26.01 67.36 24.58 65.35
  C 24.42 65.13 24.13 65.04 23.86 65.13
  Q 21.76 65.87 21.50 63.29"
/>
<path stroke="#a687cb" vector-effect="non-scaling-stroke" d="
  M 21.50 63.29
  Q 23.24 63.29 24.08 61.82
  Q 24.56 60.97 23.50 60.71"
/>
<path stroke="#68357f" vector-effect="non-scaling-stroke" d="
  M 44.00 49.79
  Q 49.86 56.04 46.92 64.29
  Q 46.82 64.56 46.84 65.24
  Q 46.87 66.19 45.81 67.31
  Q 41.61 71.76 36.25 71.00
  Q 35.34 70.87 32.75 70.79"
/>
<path stroke="#5b4194" vector-effect="non-scaling-stroke" d="
  M 32.75 70.79
  L 28.75 69.79"
/>
<path stroke="#694993" vector-effect="non-scaling-stroke" d="
  M 28.75 69.79
  Q 28.12 69.51 27.75 68.96"
/>
<path stroke="#483592" vector-effect="non-scaling-stroke" d="
  M 27.75 68.96
  Q 27.07 67.70 28.50 67.96"
/>
<path stroke="#694993" vector-effect="non-scaling-stroke" d="
  M 28.50 67.96
  L 31.82 68.54
  C 32.11 68.59 32.39 68.40 32.51 68.10
  L 33.84 64.72
  C 33.93 64.49 33.76 64.23 33.51 64.22
  L 30.50 64.03
  C 30.21 64.01 29.90 64.14 29.67 64.37
  Q 28.29 65.75 26.96 64.00"
/>
<path stroke="#6f55a0" vector-effect="non-scaling-stroke" d="
  M 30.25 62.71
  Q 33.15 63.28 35.40 61.65
  C 35.62 61.50 35.75 61.29 35.77 61.09
  Q 35.80 60.66 35.31 60.82
  Q 34.18 61.17 33.00 60.96"
/>
<path stroke="#836daf" vector-effect="non-scaling-stroke" d="
  M 32.71 59.25
  Q 32.77 59.02 33.00 58.96"
/>
<path stroke="#8573cb" vector-effect="non-scaling-stroke" d="
  M 21.50 63.29
  Q 20.92 63.33 20.96 62.75"
/>
<path stroke="#ad93d9" vector-effect="non-scaling-stroke" d="
  M 31.25 61.29
  Q 31.41 62.47 30.25 62.54"
/>
<path stroke="#bb5a9b" vector-effect="non-scaling-stroke" d="
  M 54.00 75.71
  Q 54.44 74.68 55.46 74.31
  C 55.73 74.22 55.87 73.93 55.75 73.72
  Q 55.41 73.12 54.69 73.12
  C 54.47 73.12 54.15 73.27 53.81 73.52
  Q 53.12 74.01 52.25 74.04"
/>
<path stroke="#9d519d" vector-effect="non-scaling-stroke" d="
  M 52.25 74.04
  L 41.79 73.00"
/>
<path stroke="#8f499e" vector-effect="non-scaling-stroke" d="
  M 41.79 73.00
  L 42.50 72.04"
/>
<path stroke="#ad93d9" vector-effect="non-scaling-stroke" d="
  M 15.75 75.29
  Q 14.21 75.60 14.50 74.29"
/>
<path stroke="#8289a0" vector-effect="non-scaling-stroke" d="
  M 67.02 7.34
  Q 64.64 9.78 67.50 9.26
  Q 69.90 8.82 68.72 7.40
  C 68.28 6.88 67.49 6.85 67.02 7.34"
/>
<path stroke="#4e5095" vector-effect="non-scaling-stroke" d="
  M 2.69 15.73
  C 2.70 16.21 3.14 16.57 3.61 16.48
  Q 5.30 16.16 3.92 15.11
  Q 2.65 14.14 2.69 15.73"
/>
<path stroke="#112f8b" vector-effect="non-scaling-stroke" d="
  M 26.8260 17.1963
  C 27.23 17.48 27.85 17.30 28.2063 16.7975
  C 28.56 16.29 28.52 15.65 28.1140 15.3637
  C 27.71 15.08 27.09 15.26 26.7337 15.7625
  C 26.38 16.27 26.42 16.91 26.8260 17.1963"
/>
<path stroke="#997fcc" vector-effect="non-scaling-stroke" d="
  M 20.82 57.20
  Q 20.77 56.41 20.15 56.98
  C 19.87 57.23 19.75 57.62 19.82 57.99
  Q 20.21 59.90 21.23 59.64
  C 21.54 59.56 21.77 59.29 21.81 58.95
  Q 21.90 58.25 21.26 57.88
  C 21.00 57.73 20.84 57.48 20.82 57.20"
/>
</g>
<path fill="#f7f2fb" d="
  M 0.00 0.00
  Q 40.00 0.00 80.00 0.00
  Q 80.00 40.00 80.00 80.00
  Q 40.00 80.00 0.00 80.00
  Q 0.00 40.00 0.00 0.00
  Z
  M 2.75 1.21
  Q 0.21 2.77 0.40 5.70
  Q 0.50 7.21 0.50 7.32
  Q 0.50 41.16 0.50 75.00
  Q 0.50 76.11 0.79 76.75
  Q 1.75 79.44 4.00 79.50
  Q 24.25 80.07 64.00 79.46
  Q 69.05 79.52 74.10 79.51
  Q 76.49 79.50 77.69 78.63
  Q 79.50 77.32 79.50 75.00
  Q 79.50 42.32 79.50 9.63
  Q 79.50 4.60 79.30 3.89
  Q 78.32 0.50 73.50 0.50
  Q 39.75 0.50 6.00 0.50
  Q 3.82 0.50 2.75 1.21
  Z"
/>
<path fill="#0c1f45" d="
  M 64.00 79.46
  Q 63.03 77.10 65.56 77.06
  Q 69.01 77.02 70.77 74.51
  Q 72.99 71.37 75.71 68.66
  C 75.94 68.43 76.08 68.14 76.11 67.82
  Q 76.39 64.69 76.34 61.55
  Q 76.31 59.49 76.94 56.55
  Q 77.86 52.21 76.75 47.75
  Q 76.11 45.20 76.42 36.26
  Q 76.52 33.39 76.14 32.27
  Q 75.10 29.16 71.25 31.25
  Q 68.43 32.78 70.44 35.81
  Q 71.40 37.26 71.54 39.00
  Q 69.62 40.36 67.25 39.96
  Q 66.17 39.41 65.75 37.75
  Q 65.17 35.45 63.04 33.18
  C 62.80 32.92 62.50 32.75 62.20 32.72
  Q 61.05 32.61 60.25 33.46
  Q 59.44 33.34 59.46 34.00
  Q 57.10 34.20 58.01 35.72
  Q 58.65 36.81 58.73 36.98
  Q 60.36 40.40 63.51 42.53
  C 63.78 42.72 63.94 43.01 63.92 43.31
  Q 63.73 46.20 61.32 45.76
  Q 60.77 45.66 58.86 44.36
  Q 57.60 43.50 55.99 43.49
  Q 55.86 43.48 55.06 43.76
  Q 54.58 43.92 54.23 43.44
  Q 54.00 43.11 53.52 42.87
  Q 52.94 42.58 52.39 41.63
  C 52.02 40.97 51.33 40.55 50.57 40.52
  Q 47.81 40.41 48.00 38.29
  C 48.06 37.57 47.72 36.87 47.12 36.47
  Q 44.52 34.75 42.31 35.09
  C 42.00 35.13 41.68 35.05 41.44 34.86
  Q 40.25 33.90 38.74 34.14
  C 38.43 34.19 38.12 34.11 37.88 33.92
  Q 37.25 33.44 36.49 33.30
  C 36.24 33.26 35.91 33.33 35.57 33.51
  Q 33.91 34.40 33.96 32.25
  Q 35.78 28.71 34.75 23.50
  Q 33.96 19.52 31.56 15.19
  Q 29.83 12.06 26.79 11.00
  L 26.25 9.29
  Q 26.68 9.25 27.00 8.96
  Q 27.89 8.87 28.50 8.21
  Q 31.77 8.09 29.13 4.97
  C 28.74 4.51 28.05 4.38 27.44 4.65
  L 23.75 6.29
  Q 21.55 5.88 18.69 4.06
  Q 16.08 2.41 12.25 3.04
  Q 8.75 3.77 5.93 1.98
  Q 5.15 1.48 4.41 1.38
  Q 3.58 1.28 2.75 1.21
  Q 3.82 0.50 6.00 0.50
  Q 39.75 0.50 73.50 0.50
  Q 78.32 0.50 79.30 3.89
  Q 79.50 4.60 79.50 9.63
  Q 79.50 42.32 79.50 75.00
  Q 79.50 77.32 77.69 78.63
  Q 76.49 79.50 74.10 79.51
  Q 69.05 79.52 64.00 79.46
  Z
  M 67.02 7.34
  Q 64.64 9.78 67.50 9.26
  Q 69.90 8.82 68.72 7.40
  C 68.28 6.88 67.49 6.85 67.02 7.34
  Z"
/>
<path fill="#03255f" d="
  M 2.75 1.21
  Q 3.58 1.28 4.41 1.38
  Q 5.15 1.48 5.93 1.98
  Q 8.75 3.77 12.25 3.04
  Q 5.17 3.78 7.40 10.47
  C 7.48 10.71 7.71 10.95 8.03 11.12
  L 15.02 14.78
  Q 15.49 15.02 14.97 15.25
  Q 11.66 16.73 13.54 19.78
  C 13.73 20.08 14.00 20.29 14.29 20.35
  L 19.06 21.39
  C 19.35 21.46 19.57 21.68 19.61 21.95
  Q 20.06 25.75 23.80 26.19
  Q 24.72 26.30 25.63 26.62
  Q 27.98 27.43 27.33 25.04
  C 27.26 24.76 27.01 24.53 26.70 24.46
  L 23.58 23.77
  C 23.19 23.68 23.01 23.23 23.23 22.89
  Q 25.70 19.12 22.00 19.09
  Q 19.92 19.08 17.90 18.21
  Q 16.52 17.61 17.82 16.86
  Q 19.33 15.98 21.25 16.25
  Q 23.91 16.62 22.19 14.56
  Q 21.29 13.50 19.95 13.22
  Q 16.90 12.57 14.68 10.53
  C 14.50 10.37 14.48 10.07 14.64 9.81
  L 16.07 7.47
  C 16.25 7.17 16.51 6.98 16.75 6.97
  Q 19.77 6.88 21.85 8.95
  Q 21.89 9.00 22.41 9.74
  Q 22.94 10.50 24.00 10.21
  Q 24.83 11.15 26.00 11.54
  Q 32.28 17.14 33.30 25.24
  Q 33.77 28.96 32.75 31.16
  Q 31.06 34.81 26.06 33.44
  Q 23.63 32.77 25.06 30.31
  Q 26.94 27.10 27.43 30.47
  Q 27.48 30.79 27.44 31.53
  Q 27.36 32.87 28.39 32.33
  C 28.65 32.19 28.87 31.93 29.00 31.60
  Q 30.26 28.33 28.08 27.66
  Q 26.58 27.21 25.08 28.21
  Q 22.65 29.84 23.66 33.01
  Q 24.12 34.45 25.41 35.01
  Q 26.71 35.58 28.25 35.54
  Q 29.01 35.92 28.46 36.73
  Q 27.74 37.79 29.00 37.79
  L 25.75 39.54
  Q 22.51 40.06 20.25 42.54
  Q 11.66 47.23 13.29 56.42
  Q 14.23 61.75 14.23 61.77
  Q 14.18 67.37 7.84 68.68
  Q 5.68 69.13 3.96 71.24
  Q 3.24 72.13 4.38 72.19
  Q 8.52 72.41 4.20 72.53
  C 3.89 72.54 3.69 72.87 3.82 73.15
  Q 4.67 74.99 3.00 75.96
  Q 2.58 75.93 2.46 76.25
  Q 1.84 77.05 0.79 76.75
  Q 0.50 76.11 0.50 75.00
  Q 0.50 41.16 0.50 7.32
  Q 0.50 7.21 0.40 5.70
  Q 0.21 2.77 2.75 1.21
  Z
  M 2.69 15.73
  C 2.70 16.21 3.14 16.57 3.61 16.48
  Q 5.30 16.16 3.92 15.11
  Q 2.65 14.14 2.69 15.73
  Z
  M 26.8260 17.1963
  C 27.23 17.48 27.85 17.30 28.2063 16.7975
  C 28.56 16.29 28.52 15.65 28.1140 15.3637
  C 27.71 15.08 27.09 15.26 26.7337 15.7625
  C 26.38 16.27 26.42 16.91 26.8260 17.1963
  Z"
/>
<path fill="#1f39b6" d="
  M 12.25 3.04
  Q 16.08 2.41 18.69 4.06
  Q 21.55 5.88 23.75 6.29
  Q 23.48 7.94 24.04 9.50
  L 24.00 10.21
  Q 22.94 10.50 22.41 9.74
  Q 21.89 9.00 21.85 8.95
  Q 19.77 6.88 16.75 6.97
  C 16.51 6.98 16.25 7.17 16.07 7.47
  L 14.64 9.81
  C 14.48 10.07 14.50 10.37 14.68 10.53
  Q 16.90 12.57 19.95 13.22
  Q 21.29 13.50 22.19 14.56
  Q 23.91 16.62 21.25 16.25
  Q 19.33 15.98 17.82 16.86
  Q 16.52 17.61 17.90 18.21
  Q 19.92 19.08 22.00 19.09
  Q 25.70 19.12 23.23 22.89
  C 23.01 23.23 23.19 23.68 23.58 23.77
  L 26.70 24.46
  C 27.01 24.53 27.26 24.76 27.33 25.04
  Q 27.98 27.43 25.63 26.62
  Q 24.72 26.30 23.80 26.19
  Q 20.06 25.75 19.61 21.95
  C 19.57 21.68 19.35 21.46 19.06 21.39
  L 14.29 20.35
  C 14.00 20.29 13.73 20.08 13.54 19.78
  Q 11.66 16.73 14.97 15.25
  Q 15.49 15.02 15.02 14.78
  L 8.03 11.12
  C 7.71 10.95 7.48 10.71 7.40 10.47
  Q 5.17 3.78 12.25 3.04
  Z"
/>
<path fill="#1a297d" d="
  M 28.50 8.21
  Q 28.25 6.75 27.00 6.54
  C 26.70 6.49 26.42 6.69 26.38 6.99
  Q 26.20 8.07 27.00 8.96
  Q 26.68 9.25 26.25 9.29
  Q 25.04 8.53 24.04 9.50
  Q 23.48 7.94 23.75 6.29
  L 27.44 4.65
  C 28.05 4.38 28.74 4.51 29.13 4.97
  Q 31.77 8.09 28.50 8.21
  Z"
/>
<path fill="#997bca" d="
  M 28.50 8.21
  Q 27.89 8.87 27.00 8.96
  Q 26.20 8.07 26.38 6.99
  C 26.42 6.69 26.70 6.49 27.00 6.54
  Q 28.25 6.75 28.50 8.21
  Z"
/>
<path fill="#f7f2fb" d="
  M 67.02 7.34
  C 67.49 6.85 68.28 6.88 68.72 7.40
  Q 69.90 8.82 67.50 9.26
  Q 64.64 9.78 67.02 7.34
  Z"
/>
<path fill="#997bca" d="
  M 26.25 9.29
  L 26.79 11.00
  Q 26.55 11.53 26.00 11.54
  Q 24.83 11.15 24.00 10.21
  L 24.04 9.50
  Q 25.04 8.53 26.25 9.29
  Z"
/>
<path fill="#4a3bae" d="
  M 26.79 11.00
  Q 29.83 12.06 31.56 15.19
  Q 33.96 19.52 34.75 23.50
  Q 35.78 28.71 33.96 32.25
  Q 31.97 35.31 28.25 35.54
  Q 26.71 35.58 25.41 35.01
  Q 24.12 34.45 23.66 33.01
  Q 22.65 29.84 25.08 28.21
  Q 26.58 27.21 28.08 27.66
  Q 30.26 28.33 29.00 31.60
  C 28.87 31.93 28.65 32.19 28.39 32.33
  Q 27.36 32.87 27.44 31.53
  Q 27.48 30.79 27.43 30.47
  Q 26.94 27.10 25.06 30.31
  Q 23.63 32.77 26.06 33.44
  Q 31.06 34.81 32.75 31.16
  Q 33.77 28.96 33.30 25.24
  Q 32.28 17.14 26.00 11.54
  Q 26.55 11.53 26.79 11.00
  Z"
/>
<path fill="#997bca" d="
  M 2.69 15.73
  Q 2.65 14.14 3.92 15.11
  Q 5.30 16.16 3.61 16.48
  C 3.14 16.57 2.70 16.21 2.69 15.73
  Z"
/>
<ellipse fill="#1f39b6" cx="0.00" cy="0.00" transform="translate(27.47,16.28) rotate(125.1)" rx="1.12" ry="0.90"/>
<path fill="#5f2d5a" d="
  M 64.00 79.46
  Q 24.25 80.07 4.00 79.50
  Q 1.75 79.44 0.79 76.75
  Q 1.84 77.05 2.46 76.25
  Q 3.08 76.49 3.35 77.03
  C 3.51 77.37 3.77 77.58 4.00 77.57
  L 7.75 77.46
  Q 9.42 77.51 11.09 77.51
  Q 11.81 77.51 14.34 78.01
  Q 15.73 78.28 17.75 78.25
  Q 28.15 78.07 38.56 77.81
  Q 40.16 77.77 41.00 77.21
  L 43.00 77.29
  L 58.26 78.00
  C 58.55 78.01 58.86 77.88 59.09 77.63
  Q 60.70 75.92 61.66 75.84
  Q 64.12 75.63 65.80 73.82
  Q 68.06 71.40 69.95 68.70
  Q 70.32 68.17 70.95 68.14
  C 71.27 68.13 71.54 67.97 71.66 67.73
  Q 72.27 66.49 72.91 65.27
  Q 73.57 64.03 73.64 62.69
  Q 74.08 53.72 73.54 44.75
  Q 73.83 39.27 74.66 33.85
  Q 74.76 33.16 74.59 32.66
  Q 74.07 31.18 73.00 32.75
  Q 72.29 33.79 73.04 35.54
  C 73.14 35.79 73.05 36.08 72.81 36.22
  Q 71.38 37.08 71.54 39.00
  Q 71.40 37.26 70.44 35.81
  Q 68.43 32.78 71.25 31.25
  Q 75.10 29.16 76.14 32.27
  Q 76.52 33.39 76.42 36.26
  Q 76.11 45.20 76.75 47.75
  Q 77.86 52.21 76.94 56.55
  Q 76.31 59.49 76.34 61.55
  Q 76.39 64.69 76.11 67.82
  C 76.08 68.14 75.94 68.43 75.71 68.66
  Q 72.99 71.37 70.77 74.51
  Q 69.01 77.02 65.56 77.06
  Q 63.03 77.10 64.00 79.46
  Z"
/>
<path fill="#9a5194" d="
  M 73.54 44.75
  L 73.05 54.76
  Q 73.01 55.50 73.00 54.74
  Q 72.95 51.59 72.04 54.00
  Q 71.87 50.66 71.72 47.31
  Q 71.58 43.93 69.04 41.75
  Q 68.80 40.89 67.75 41.00
  Q 66.66 41.12 65.50 40.21
  L 65.54 40.00
  L 67.25 39.96
  Q 69.62 40.36 71.54 39.00
  Q 71.38 37.08 72.81 36.22
  C 73.05 36.08 73.14 35.79 73.04 35.54
  Q 72.29 33.79 73.00 32.75
  Q 74.07 31.18 74.59 32.66
  Q 74.76 33.16 74.66 33.85
  Q 73.83 39.27 73.54 44.75
  Z"
/>
<path fill="#452f76" d="
  M 33.96 32.25
  Q 33.91 34.40 35.57 33.51
  C 35.91 33.33 36.24 33.26 36.49 33.30
  Q 37.25 33.44 37.88 33.92
  C 38.12 34.11 38.43 34.19 38.74 34.14
  Q 40.25 33.90 41.44 34.86
  C 41.68 35.05 42.00 35.13 42.31 35.09
  Q 44.52 34.75 47.12 36.47
  C 47.72 36.87 48.06 37.57 48.00 38.29
  Q 47.81 40.41 50.57 40.52
  C 51.33 40.55 52.02 40.97 52.39 41.63
  Q 52.94 42.58 53.52 42.87
  Q 54.00 43.11 54.23 43.44
  Q 54.58 43.92 55.06 43.76
  Q 55.86 43.48 55.99 43.49
  Q 57.60 43.50 58.86 44.36
  Q 60.77 45.66 61.32 45.76
  Q 63.73 46.20 63.92 43.31
  C 63.94 43.01 63.78 42.72 63.51 42.53
  Q 60.36 40.40 58.73 36.98
  Q 58.65 36.81 58.01 35.72
  Q 57.10 34.20 59.46 34.00
  L 64.46 41.00
  Q 65.15 42.67 65.04 44.50
  L 63.71 49.50
  L 61.96 51.50
  L 60.46 53.25
  Q 59.63 53.28 59.17 52.57
  Q 58.29 51.25 56.81 50.99
  C 56.46 50.93 56.16 50.79 55.96 50.58
  L 54.25 48.79
  Q 53.52 47.23 52.00 46.46
  Q 51.68 45.62 50.19 43.56
  Q 49.20 42.20 47.79 42.50
  Q 43.28 35.79 35.00 37.75
  Q 34.00 37.99 32.79 37.50
  Q 32.47 37.12 32.04 36.95
  C 31.80 36.85 31.46 36.90 31.14 37.09
  Q 30.17 37.67 29.00 37.79
  Q 27.74 37.79 28.46 36.73
  Q 29.01 35.92 28.25 35.54
  Q 31.97 35.31 33.96 32.25
  Z"
/>
<path fill="#5f2d5a" d="
  M 67.25 39.96
  L 65.54 40.00
  Q 63.64 38.31 62.31 35.19
  Q 61.83 34.06 60.25 33.46
  Q 61.05 32.61 62.20 32.72
  C 62.50 32.75 62.80 32.92 63.04 33.18
  Q 65.17 35.45 65.75 37.75
  Q 66.17 39.41 67.25 39.96
  Z"
/>
<path fill="#c873ab" d="
  M 60.25 33.46
  Q 61.83 34.06 62.31 35.19
  Q 63.64 38.31 65.54 40.00
  L 65.50 40.21
  Q 64.66 40.26 64.46 41.00
  L 59.46 34.00
  Q 59.44 33.34 60.25 33.46
  Z"
/>
<path fill="#f7f2fb" d="
  M 32.79 37.50
  Q 32.93 38.75 32.05 39.00
  Q 31.43 39.18 31.17 39.38
  Q 29.92 40.33 28.50 40.88
  Q 26.79 41.53 25.98 42.37
  Q 23.22 45.19 21.46 48.75
  Q 20.69 48.72 20.87 49.33
  Q 21.16 50.35 21.10 51.41
  Q 21.08 51.76 21.07 53.09
  Q 21.04 54.87 19.31 54.56
  C 18.99 54.50 18.71 54.30 18.57 54.01
  Q 17.52 51.96 18.93 50.13
  C 19.15 49.85 19.25 49.53 19.22 49.26
  Q 19.10 48.08 18.46 47.00
  L 18.79 45.75
  L 25.75 39.54
  L 29.00 37.79
  Q 30.17 37.67 31.14 37.09
  C 31.46 36.90 31.80 36.85 32.04 36.95
  Q 32.47 37.12 32.79 37.50
  Z"
/>
<path fill="#c0abe7" d="
  M 32.79 37.50
  Q 34.00 37.99 35.00 37.75
  Q 43.28 35.79 47.79 42.50
  Q 47.25 43.72 46.83 44.99
  Q 46.68 45.45 46.37 45.79
  Q 43.77 48.62 45.36 45.00
  Q 45.54 44.59 45.92 44.23
  Q 48.07 42.12 44.81 43.06
  Q 42.67 43.68 42.00 42.00
  Q 40.95 39.37 38.30 39.62
  Q 37.82 39.67 37.35 39.48
  Q 34.93 38.50 34.05 40.76
  Q 33.92 41.11 33.82 42.40
  Q 33.69 44.10 32.20 43.48
  C 31.86 43.33 31.53 43.28 31.26 43.34
  Q 27.10 44.25 24.81 48.31
  Q 23.38 50.87 21.46 48.75
  Q 23.22 45.19 25.98 42.37
  Q 26.79 41.53 28.50 40.88
  Q 29.92 40.33 31.17 39.38
  Q 31.43 39.18 32.05 39.00
  Q 32.93 38.75 32.79 37.50
  Z"
/>
<path fill="#7152b1" d="
  M 47.79 42.50
  Q 49.20 42.20 50.19 43.56
  Q 51.68 45.62 52.00 46.46
  Q 50.23 47.48 49.25 49.29
  Q 46.97 49.82 48.21 52.25
  Q 47.57 51.63 47.35 50.81
  Q 47.03 49.57 46.82 49.31
  Q 45.71 47.93 44.00 49.79
  Q 42.24 48.40 42.00 47.75
  Q 41.27 45.77 40.46 47.75
  Q 36.55 45.65 32.25 46.46
  Q 25.38 47.68 25.00 54.73
  C 24.97 55.29 25.50 55.72 26.04 55.57
  Q 28.73 54.84 28.40 52.31
  C 28.36 52.04 28.52 51.77 28.78 51.64
  Q 29.83 51.12 29.25 49.93
  C 29.14 49.70 29.22 49.41 29.44 49.26
  L 32.75 46.96
  Q 35.15 46.16 36.88 47.65
  C 37.11 47.85 37.42 47.97 37.75 47.99
  Q 39.18 48.08 39.25 49.71
  Q 35.41 51.29 38.54 53.76
  C 38.83 53.99 38.96 54.31 38.87 54.55
  Q 38.56 55.35 36.83 53.23
  Q 36.34 52.63 36.29 53.41
  Q 36.22 54.65 35.17 55.46
  C 34.93 55.65 34.81 55.95 34.86 56.23
  Q 35.29 58.58 33.00 58.96
  Q 30.25 54.66 34.29 52.45
  Q 34.60 52.29 34.79 52.10
  Q 35.80 51.08 34.16 51.47
  Q 33.82 51.55 33.50 51.74
  Q 28.04 54.90 32.71 59.25
  Q 32.48 60.16 33.00 60.96
  L 31.25 61.29
  Q 28.63 60.42 28.25 58.00
  Q 28.02 56.54 26.93 56.60
  C 26.62 56.61 26.34 56.81 26.20 57.12
  Q 25.53 58.57 26.85 59.65
  Q 28.57 61.06 30.25 62.54
  L 30.25 62.71
  Q 29.54 63.30 28.72 63.15
  C 28.30 63.07 27.95 63.08 27.77 63.17
  Q 27.25 63.43 26.96 64.00
  Q 25.85 64.12 26.04 63.01
  Q 26.64 59.54 23.50 60.71
  Q 21.73 61.06 20.96 62.75
  Q 20.64 63.18 20.26 63.14
  C 20.04 63.11 19.85 62.82 19.81 62.44
  Q 19.69 61.21 18.29 61.25
  Q 15.20 54.32 17.81 47.31
  Q 17.95 46.95 18.46 47.00
  Q 19.10 48.08 19.22 49.26
  C 19.25 49.53 19.15 49.85 18.93 50.13
  Q 17.52 51.96 18.57 54.01
  C 18.71 54.30 18.99 54.50 19.31 54.56
  Q 21.04 54.87 21.07 53.09
  Q 21.08 51.76 21.10 51.41
  Q 21.16 50.35 20.87 49.33
  Q 20.69 48.72 21.46 48.75
  Q 23.38 50.87 24.81 48.31
  Q 27.10 44.25 31.26 43.34
  C 31.53 43.28 31.86 43.33 32.20 43.48
  Q 33.69 44.10 33.82 42.40
  Q 33.92 41.11 34.05 40.76
  Q 34.93 38.50 37.35 39.48
  Q 37.82 39.67 38.30 39.62
  Q 40.95 39.37 42.00 42.00
  Q 42.67 43.68 44.81 43.06
  Q 48.07 42.12 45.92 44.23
  Q 45.54 44.59 45.36 45.00
  Q 43.77 48.62 46.37 45.79
  Q 46.68 45.45 46.83 44.99
  Q 47.25 43.72 47.79 42.50
  Z
  M 20.82 57.20
  Q 20.77 56.41 20.15 56.98
  C 19.87 57.23 19.75 57.62 19.82 57.99
  Q 20.21 59.90 21.23 59.64
  C 21.54 59.56 21.77 59.29 21.81 58.95
  Q 21.90 58.25 21.26 57.88
  C 21.00 57.73 20.84 57.48 20.82 57.20
  Z"
/>
<path fill="#4a3bae" d="
  M 25.75 39.54
  L 18.79 45.75
  Q 18.99 43.93 20.25 42.54
  Q 22.51 40.06 25.75 39.54
  Z"
/>
<path fill="#c0abe7" d="
  M 65.50 40.21
  Q 66.66 41.12 67.75 41.00
  Q 68.80 40.89 69.04 41.75
  Q 69.47 47.93 67.36 53.72
  C 67.27 53.99 66.99 54.15 66.69 54.13
  Q 64.78 54.00 63.25 55.04
  Q 61.03 55.70 61.69 53.44
  Q 62.10 52.01 61.96 51.50
  L 63.71 49.50
  Q 63.34 51.90 65.28 51.20
  C 65.58 51.09 65.83 50.85 65.96 50.54
  Q 67.10 47.97 67.03 45.15
  Q 67.01 44.42 66.69 43.94
  Q 65.85 42.70 65.04 44.50
  Q 65.15 42.67 64.46 41.00
  Q 64.66 40.26 65.50 40.21
  Z"
/>
<path fill="#c873ab" d="
  M 69.04 41.75
  Q 71.58 43.93 71.72 47.31
  Q 71.87 50.66 72.04 54.00
  Q 72.26 58.08 70.46 61.75
  Q 69.79 62.23 68.81 63.81
  Q 68.33 64.60 67.53 64.39
  C 67.29 64.32 67.09 64.05 67.03 63.69
  L 66.46 60.25
  Q 67.22 57.72 65.25 56.71
  L 63.25 55.04
  Q 64.78 54.00 66.69 54.13
  C 66.99 54.15 67.27 53.99 67.36 53.72
  Q 69.47 47.93 69.04 41.75
  Z"
/>
<path fill="#1a297d" d="
  M 20.25 42.54
  Q 18.99 43.93 18.79 45.75
  L 18.46 47.00
  Q 17.95 46.95 17.81 47.31
  Q 15.20 54.32 18.29 61.25
  Q 17.57 62.05 17.81 62.69
  Q 20.37 69.38 14.25 72.46
  L 11.75 74.21
  Q 7.51 75.77 3.00 75.96
  Q 4.67 74.99 3.82 73.15
  C 3.69 72.87 3.89 72.54 4.20 72.53
  Q 8.52 72.41 4.38 72.19
  Q 3.24 72.13 3.96 71.24
  Q 5.68 69.13 7.84 68.68
  Q 14.18 67.37 14.23 61.77
  Q 14.23 61.75 13.29 56.42
  Q 11.66 47.23 20.25 42.54
  Z"
/>
<path fill="#f7f2fb" d="
  M 63.71 49.50
  L 65.04 44.50
  Q 65.85 42.70 66.69 43.94
  Q 67.01 44.42 67.03 45.15
  Q 67.10 47.97 65.96 50.54
  C 65.83 50.85 65.58 51.09 65.28 51.20
  Q 63.34 51.90 63.71 49.50
  Z"
/>
<path fill="#8f366d" d="
  M 73.54 44.75
  Q 74.08 53.72 73.64 62.69
  Q 73.57 64.03 72.91 65.27
  Q 72.27 66.49 71.66 67.73
  C 71.54 67.97 71.27 68.13 70.95 68.14
  Q 70.32 68.17 69.95 68.70
  Q 68.06 71.40 65.80 73.82
  Q 64.12 75.63 61.66 75.84
  Q 60.70 75.92 59.09 77.63
  C 58.86 77.88 58.55 78.01 58.26 78.00
  L 43.00 77.29
  L 54.00 75.71
  Q 57.41 76.45 60.69 75.44
  Q 62.54 74.86 63.19 74.19
  Q 66.32 70.91 68.96 67.22
  Q 70.73 64.76 70.46 61.75
  Q 72.26 58.08 72.04 54.00
  Q 72.95 51.59 73.00 54.74
  Q 73.01 55.50 73.05 54.76
  L 73.54 44.75
  Z"
/>
<path fill="#997bca" d="
  M 40.46 47.75
  L 42.44 51.36
  C 42.64 51.73 42.76 52.06 42.75 52.25
  Q 42.71 53.74 41.82 53.29
  Q 41.40 53.08 41.06 52.37
  Q 40.35 50.91 39.25 49.71
  Q 39.18 48.08 37.75 47.99
  C 37.42 47.97 37.11 47.85 36.88 47.65
  Q 35.15 46.16 32.75 46.96
  Q 32.83 46.42 32.25 46.46
  Q 36.55 45.65 40.46 47.75
  Z"
/>
<path fill="#f7f2fb" d="
  M 32.25 46.46
  Q 32.83 46.42 32.75 46.96
  L 29.44 49.26
  C 29.22 49.41 29.14 49.70 29.25 49.93
  Q 29.83 51.12 28.78 51.64
  C 28.52 51.77 28.36 52.04 28.40 52.31
  Q 28.73 54.84 26.04 55.57
  C 25.50 55.72 24.97 55.29 25.00 54.73
  Q 25.38 47.68 32.25 46.46
  Z"
/>
<path fill="#997bca" d="
  M 52.00 46.46
  Q 53.52 47.23 54.25 48.79
  Q 53.89 52.77 50.28 51.60
  C 49.96 51.50 49.70 51.28 49.57 51.00
  Q 49.19 50.19 49.25 49.29
  Q 50.23 47.48 52.00 46.46
  Z"
/>
<path fill="#452f76" d="
  M 44.00 49.79
  Q 49.86 56.04 46.92 64.29
  Q 46.82 64.56 46.84 65.24
  Q 46.87 66.19 45.81 67.31
  Q 41.61 71.76 36.25 71.00
  Q 35.34 70.87 32.75 70.79
  L 28.75 69.79
  Q 28.12 69.51 27.75 68.96
  Q 27.07 67.70 28.50 67.96
  L 31.82 68.54
  C 32.11 68.59 32.39 68.40 32.51 68.10
  L 33.84 64.72
  C 33.93 64.49 33.76 64.23 33.51 64.22
  L 30.50 64.03
  C 30.21 64.01 29.90 64.14 29.67 64.37
  Q 28.29 65.75 26.96 64.00
  Q 27.25 63.43 27.77 63.17
  C 27.95 63.08 28.30 63.07 28.72 63.15
  Q 29.54 63.30 30.25 62.71
  Q 33.15 63.28 35.40 61.65
  C 35.62 61.50 35.75 61.29 35.77 61.09
  Q 35.80 60.66 35.31 60.82
  Q 34.18 61.17 33.00 60.96
  Q 32.48 60.16 32.71 59.25
  Q 32.77 59.02 33.00 58.96
  Q 35.29 58.58 34.86 56.23
  C 34.81 55.95 34.93 55.65 35.17 55.46
  Q 36.22 54.65 36.29 53.41
  Q 36.34 52.63 36.83 53.23
  Q 38.56 55.35 38.87 54.55
  C 38.96 54.31 38.83 53.99 38.54 53.76
  Q 35.41 51.29 39.25 49.71
  Q 40.35 50.91 41.06 52.37
  Q 41.40 53.08 41.82 53.29
  Q 42.71 53.74 42.75 52.25
  C 42.76 52.06 42.64 51.73 42.44 51.36
  L 40.46 47.75
  Q 41.27 45.77 42.00 47.75
  Q 42.24 48.40 44.00 49.79
  Z"
/>
<path fill="#8a3b87" d="
  M 48.21 52.25
  L 51.75 55.04
  Q 50.35 56.82 50.46 59.00
  C 50.47 59.28 50.62 59.58 50.88 59.83
  Q 52.24 61.15 50.46 62.22
  Q 49.41 62.85 48.35 63.43
  Q 47.19 64.06 47.97 64.50
  C 48.22 64.63 48.56 64.58 48.83 64.37
  Q 51.02 62.63 53.75 62.00
  Q 54.18 61.90 56.06 61.81
  Q 58.36 61.71 60.16 60.38
  C 60.40 60.20 60.59 59.92 60.70 59.58
  Q 61.72 56.53 65.25 56.71
  Q 67.22 57.72 66.46 60.25
  L 59.85 66.15
  Q 59.47 66.50 59.01 66.59
  Q 54.96 67.46 51.75 71.25
  Q 50.52 72.70 48.62 72.31
  Q 46.39 71.86 45.65 71.90
  Q 44.07 71.99 42.50 72.04
  Q 42.35 71.71 42.56 71.51
  Q 42.73 71.34 42.52 71.33
  L 32.75 70.79
  Q 35.34 70.87 36.25 71.00
  Q 41.61 71.76 45.81 67.31
  Q 46.87 66.19 46.84 65.24
  Q 46.82 64.56 46.92 64.29
  Q 49.86 56.04 44.00 49.79
  Q 45.71 47.93 46.82 49.31
  Q 47.03 49.57 47.35 50.81
  Q 47.57 51.63 48.21 52.25
  Z"
/>
<path fill="#9a5194" d="
  M 54.25 48.79
  L 55.96 50.58
  C 56.16 50.79 56.46 50.93 56.81 50.99
  Q 58.29 51.25 59.17 52.57
  Q 59.63 53.28 60.46 53.25
  Q 60.15 53.83 59.50 54.04
  Q 58.72 53.82 58.04 53.39
  Q 56.32 52.31 54.62 55.26
  C 54.30 55.82 54.42 56.53 54.91 56.95
  Q 55.94 57.83 56.27 55.86
  Q 56.33 55.51 56.49 55.33
  Q 56.78 55.01 57.07 55.12
  C 57.29 55.21 57.32 55.55 57.12 55.82
  Q 56.02 57.33 57.96 58.00
  Q 56.16 61.24 54.00 58.70
  Q 53.79 58.46 53.21 58.18
  L 52.39 57.79
  C 52.17 57.69 52.12 57.36 52.28 57.08
  Q 53.00 55.84 51.75 55.04
  L 48.21 52.25
  Q 46.97 49.82 49.25 49.29
  Q 49.19 50.19 49.57 51.00
  C 49.70 51.28 49.96 51.50 50.28 51.60
  Q 53.89 52.77 54.25 48.79
  Z"
/>
<path fill="#c0abe7" d="
  M 33.00 58.96
  Q 32.77 59.02 32.71 59.25
  Q 28.04 54.90 33.50 51.74
  Q 33.82 51.55 34.16 51.47
  Q 35.80 51.08 34.79 52.10
  Q 34.60 52.29 34.29 52.45
  Q 30.25 54.66 33.00 58.96
  Z"
/>
<path fill="#9a5194" d="
  M 61.96 51.50
  Q 62.10 52.01 61.69 53.44
  Q 61.03 55.70 63.25 55.04
  L 65.25 56.71
  Q 61.72 56.53 60.70 59.58
  C 60.59 59.92 60.40 60.20 60.16 60.38
  Q 58.36 61.71 56.06 61.81
  Q 54.18 61.90 53.75 62.00
  Q 51.02 62.63 48.83 64.37
  C 48.56 64.58 48.22 64.63 47.97 64.50
  Q 47.19 64.06 48.35 63.43
  Q 49.41 62.85 50.46 62.22
  Q 52.24 61.15 50.88 59.83
  C 50.62 59.58 50.47 59.28 50.46 59.00
  Q 50.35 56.82 51.75 55.04
  Q 53.00 55.84 52.28 57.08
  C 52.12 57.36 52.17 57.69 52.39 57.79
  L 53.21 58.18
  Q 53.79 58.46 54.00 58.70
  Q 56.16 61.24 57.96 58.00
  Q 58.32 56.89 59.69 55.69
  Q 60.57 54.91 59.50 54.04
  Q 60.15 53.83 60.46 53.25
  L 61.96 51.50
  Z"
/>
<path fill="#c873ab" d="
  M 59.50 54.04
  Q 60.57 54.91 59.69 55.69
  Q 58.32 56.89 57.96 58.00
  Q 56.02 57.33 57.12 55.82
  C 57.32 55.55 57.29 55.21 57.07 55.12
  Q 56.78 55.01 56.49 55.33
  Q 56.33 55.51 56.27 55.86
  Q 55.94 57.83 54.91 56.95
  C 54.42 56.53 54.30 55.82 54.62 55.26
  Q 56.32 52.31 58.04 53.39
  Q 58.72 53.82 59.50 54.04
  Z"
/>
<path fill="#c0abe7" d="
  M 31.25 61.29
  Q 31.41 62.47 30.25 62.54
  Q 28.57 61.06 26.85 59.65
  Q 25.53 58.57 26.20 57.12
  C 26.34 56.81 26.62 56.61 26.93 56.60
  Q 28.02 56.54 28.25 58.00
  Q 28.63 60.42 31.25 61.29
  Z"
/>
<path fill="#c0abe7" d="
  M 21.26 57.88
  Q 21.90 58.25 21.81 58.95
  C 21.77 59.29 21.54 59.56 21.23 59.64
  Q 20.21 59.90 19.82 57.99
  C 19.75 57.62 19.87 57.23 20.15 56.98
  Q 20.77 56.41 20.82 57.20
  C 20.84 57.48 21.00 57.73 21.26 57.88
  Z"
/>
<path fill="#8c62af" d="
  M 26.96 64.00
  Q 28.29 65.75 29.67 64.37
  C 29.90 64.14 30.21 64.01 30.50 64.03
  L 33.51 64.22
  C 33.76 64.23 33.93 64.49 33.84 64.72
  L 32.51 68.10
  C 32.39 68.40 32.11 68.59 31.82 68.54
  L 28.50 67.96
  Q 26.01 67.36 24.58 65.35
  C 24.42 65.13 24.13 65.04 23.86 65.13
  Q 21.76 65.87 21.50 63.29
  Q 23.24 63.29 24.08 61.82
  Q 24.56 60.97 23.50 60.71
  Q 26.64 59.54 26.04 63.01
  Q 25.85 64.12 26.96 64.00
  Z"
/>
<path fill="#ad408b" d="
  M 66.46 60.25
  L 67.03 63.69
  C 67.09 64.05 67.29 64.32 67.53 64.39
  Q 68.33 64.60 68.81 63.81
  Q 69.79 62.23 70.46 61.75
  Q 70.73 64.76 68.96 67.22
  Q 66.32 70.91 63.19 74.19
  Q 62.54 74.86 60.69 75.44
  Q 57.41 76.45 54.00 75.71
  Q 54.44 74.68 55.46 74.31
  C 55.73 74.22 55.87 73.93 55.75 73.72
  Q 55.41 73.12 54.69 73.12
  C 54.47 73.12 54.15 73.27 53.81 73.52
  Q 53.12 74.01 52.25 74.04
  L 41.79 73.00
  L 42.50 72.04
  Q 44.07 71.99 45.65 71.90
  Q 46.39 71.86 48.62 72.31
  Q 50.52 72.70 51.75 71.25
  Q 54.96 67.46 59.01 66.59
  Q 59.47 66.50 59.85 66.15
  L 66.46 60.25
  Z"
/>
<path fill="#c0abe7" d="
  M 23.50 60.71
  Q 24.56 60.97 24.08 61.82
  Q 23.24 63.29 21.50 63.29
  Q 20.92 63.33 20.96 62.75
  Q 21.73 61.06 23.50 60.71
  Z"
/>
<path fill="#997bca" d="
  M 30.25 62.71
  L 30.25 62.54
  Q 31.41 62.47 31.25 61.29
  L 33.00 60.96
  Q 34.18 61.17 35.31 60.82
  Q 35.80 60.66 35.77 61.09
  C 35.75 61.29 35.62 61.50 35.40 61.65
  Q 33.15 63.28 30.25 62.71
  Z"
/>
<path fill="#4a3bae" d="
  M 18.29 61.25
  Q 19.69 61.21 19.81 62.44
  C 19.85 62.82 20.04 63.11 20.26 63.14
  Q 20.64 63.18 20.96 62.75
  Q 20.92 63.33 21.50 63.29
  Q 21.76 65.87 23.86 65.13
  C 24.13 65.04 24.42 65.13 24.58 65.35
  Q 26.01 67.36 28.50 67.96
  Q 27.07 67.70 27.75 68.96
  Q 26.80 69.24 25.90 68.57
  C 25.56 68.31 25.10 68.26 24.68 68.42
  L 14.25 72.46
  Q 20.37 69.38 17.81 62.69
  Q 17.57 62.05 18.29 61.25
  Z"
/>
<path fill="#8c62af" d="
  M 27.75 68.96
  Q 28.12 69.51 28.75 69.79
  Q 29.56 72.06 32.01 72.45
  Q 35.24 72.95 38.51 73.21
  Q 38.90 73.24 39.42 73.51
  Q 40.70 74.16 41.79 73.00
  L 52.25 74.04
  Q 46.90 74.57 44.44 75.94
  Q 42.31 77.12 41.16 75.40
  C 40.96 75.11 40.62 74.95 40.27 75.00
  Q 36.52 75.53 39.27 76.17
  Q 40.31 76.41 41.00 77.21
  Q 40.16 77.77 38.56 77.81
  Q 28.15 78.07 17.75 78.25
  Q 15.73 78.28 14.34 78.01
  Q 11.81 77.51 11.09 77.51
  Q 9.42 77.51 7.75 77.46
  L 15.75 75.29
  L 23.37 72.29
  Q 23.90 72.08 24.31 72.11
  Q 26.23 72.21 25.00 71.00
  Q 23.87 69.89 20.31 71.56
  L 14.50 74.29
  L 11.75 74.21
  L 14.25 72.46
  L 24.68 68.42
  C 25.10 68.26 25.56 68.31 25.90 68.57
  Q 26.80 69.24 27.75 68.96
  Z"
/>
<path fill="#7152b1" d="
  M 28.75 69.79
  L 32.75 70.79
  L 42.52 71.33
  Q 42.73 71.34 42.56 71.51
  Q 42.35 71.71 42.50 72.04
  L 41.79 73.00
  Q 40.70 74.16 39.42 73.51
  Q 38.90 73.24 38.51 73.21
  Q 35.24 72.95 32.01 72.45
  Q 29.56 72.06 28.75 69.79
  Z"
/>
<path fill="#c0abe7" d="
  M 15.75 75.29
  Q 14.21 75.60 14.50 74.29
  L 20.31 71.56
  Q 23.87 69.89 25.00 71.00
  Q 26.23 72.21 24.31 72.11
  Q 23.90 72.08 23.37 72.29
  L 15.75 75.29
  Z"
/>
<path fill="#c873ab" d="
  M 54.00 75.71
  L 43.00 77.29
  L 41.00 77.21
  Q 40.31 76.41 39.27 76.17
  Q 36.52 75.53 40.27 75.00
  C 40.62 74.95 40.96 75.11 41.16 75.40
  Q 42.31 77.12 44.44 75.94
  Q 46.90 74.57 52.25 74.04
  Q 53.12 74.01 53.81 73.52
  C 54.15 73.27 54.47 73.12 54.69 73.12
  Q 55.41 73.12 55.75 73.72
  C 55.87 73.93 55.73 74.22 55.46 74.31
  Q 54.44 74.68 54.00 75.71
  Z"
/>
<path fill="#997bca" d="
  M 11.75 74.21
  L 14.50 74.29
  Q 14.21 75.60 15.75 75.29
  L 7.75 77.46
  L 4.00 77.57
  C 3.77 77.58 3.51 77.37 3.35 77.03
  Q 3.08 76.49 2.46 76.25
  Q 2.58 75.93 3.00 75.96
  Q 7.51 75.77 11.75 74.21
  Z"
/>
</svg>
