<svg xmlns="http://www.w3.org/2000/svg" width="1rem" height="1rem" viewBox="0 0 48 48"><path fill="none" stroke="currentColor" stroke-linecap="round" stroke-linejoin="round" d="M24.21 20.542c-9.843 1.226-11.302 5.348-10.966 10.483c.036 4.203 3.775 8.695 11.13 8.469c4.663-.15 11.013-3.924 10.378-11.12c-.717-6.826-10.126-9.655-17.173-13.772c-2.119-1.404-1.935-4.776 2.387-5.58c3.678-.567 7.441-.963 10.506.43c3.18 1.835 1.25 4.09-1.184 3.444c-1.907-.653-3.265-3.75-7.327-4.14" stroke-width="2"/><path fill="none" stroke="currentColor" stroke-linecap="round" stroke-linejoin="round" d="M25.392 21.22c-5.247 1.443-8.794 5.226-7.384 11.717A6.147 6.147 0 0 0 29.545 34.4c2.088-4.368.4-10.084-4.153-13.18m-8.095-6.814a64.3 64.3 0 0 0 8.286 6.939" stroke-width="2"/><path fill="none" stroke="currentColor" stroke-linecap="round" stroke-linejoin="round" d="M43.12 33.804A23.5 23.5 0 0 0 45.5 24A21.5 21.5 0 1 0 24 45.5a23.5 23.5 0 0 0 9.804-2.38A10.53 10.53 0 0 1 45.5 45.5a10.53 10.53 0 0 1-2.38-11.696" stroke-width="2"/></svg>