<svg xmlns="http://www.w3.org/2000/svg" width="1.13rem" height="1rem" viewBox="0 0 576 512"><path fill="currentColor" d="M480 416v16c0 26.51-21.49 48-48 48H48c-26.51 0-48-21.49-48-48V176c0-26.51 21.49-48 48-48h16v208c0 44.112 35.888 80 80 80zm96-80V80c0-26.51-21.49-48-48-48H144c-26.51 0-48 21.49-48 48v256c0 26.51 21.49 48 48 48h384c26.51 0 48-21.49 48-48M256 128c0 26.51-21.49 48-48 48s-48-21.49-48-48s21.49-48 48-48s48 21.49 48 48m-96 144l55.515-55.515c4.686-4.686 12.284-4.686 16.971 0L272 256l135.515-135.515c4.686-4.686 12.284-4.686 16.971 0L512 208v112H160z"/></svg>