<svg t="1712675867808" class="icon" viewBox="0 0 1024 1024" version="1.1" xmlns="http://www.w3.org/2000/svg" p-id="4431" id="mx_n_1712675867809" xmlns:xlink="http://www.w3.org/1999/xlink"><path d="M465.46176 165.888a349.184 349.184 0 0 0-126.976 46.592l-9.728 5.632a235.52 235.52 0 0 0-20.992 15.36 303.104 303.104 0 0 0-86.528 108.032 344.064 344.064 0 0 0-21.504 60.928c-3.072 10.752-7.168 15.36-13.312 15.36A334.336 334.336 0 0 0 102.45376 451.584a388.096 388.096 0 0 0-51.2 41.984 212.992 212.992 0 0 0-51.2 143.36 208.384 208.384 0 0 0 68.608 157.696 227.84 227.84 0 0 0 96.256 55.808c40.448 10.752 28.672 10.24 345.6 10.24 266.752 0 293.888 0 311.808-3.072a334.848 334.848 0 0 0 57.856-14.848l9.728-4.608a264.704 264.704 0 0 0 47.616-29.184A222.208 222.208 0 0 0 1024.05376 636.416a261.632 261.632 0 0 0-13.312-73.216 27.136 27.136 0 0 1-3.072-8.192 198.656 198.656 0 0 0-19.968-37.376l-9.728-12.288a167.424 167.424 0 0 0-38.4-38.4 173.568 173.568 0 0 0-43.008-28.16l-9.216-4.096a494.08 494.08 0 0 0-51.2-17.408 358.4 358.4 0 0 0-37.888-3.072 216.576 216.576 0 0 0-76.8 7.68l-20.992 7.168a239.104 239.104 0 0 0-51.2 26.112 1382.4 1382.4 0 0 0-108.544 92.672q-95.744 88.576-192.512 176.128l-37.376 34.816-16.896 16.384h-34.304c-18.944 0-42.496 0-51.2-4.096a138.24 138.24 0 0 1-112.128-97.28 185.344 185.344 0 0 1 0-67.072 150.528 150.528 0 0 1 47.616-71.68 168.448 168.448 0 0 1 93.696-33.28 179.712 179.712 0 0 1 114.176 51.2l22.528 18.944 22.528 18.944a59.904 59.904 0 0 0 15.36 11.264c3.584 0 11.776-6.656 40.96-33.28a197.12 197.12 0 0 0 25.088-26.112 109.056 109.056 0 0 0-17.408-19.456l-23.552-19.456c-3.584-4.096-40.448-32.256-59.392-46.08a256 256 0 0 0-64-31.744 70.656 70.656 0 0 1-18.944-8.704 228.864 228.864 0 0 1 17.92-51.2 239.104 239.104 0 0 1 51.2-64 216.064 216.064 0 0 1 83.968-44.032L468.02176 256a173.056 173.056 0 0 1 44.032-4.096A171.52 171.52 0 0 1 563.25376 256a224.256 224.256 0 0 1 96.256 46.08A240.128 240.128 0 0 1 706.61376 358.4a150.016 150.016 0 0 0 10.24 15.36 64.512 64.512 0 0 0 14.848 0 370.688 370.688 0 0 1 45.056-4.096c35.84 0 36.864 0 29.184-15.36a123.904 123.904 0 0 1-6.656-14.848 75.264 75.264 0 0 0-7.168-14.848 81.92 81.92 0 0 1-5.632-9.728 364.544 364.544 0 0 0-40.448-51.2 320 320 0 0 0-90.112-64l-23.04-10.752a310.272 310.272 0 0 0-37.376-11.776 354.816 354.816 0 0 0-130.56-8.192z m350.208 338.944a139.776 139.776 0 0 1 80.896 45.568 115.2 115.2 0 0 1 32.768 84.48 82.944 82.944 0 0 1-4.608 40.448 124.928 124.928 0 0 1-24.064 45.568 147.456 147.456 0 0 1-76.288 47.104 406.528 406.528 0 0 1-41.984 4.608H434.74176a563.2 563.2 0 0 1 48.64-47.104L545.84576 665.6c22.016-20.48 107.008-97.792 119.296-108.032l12.8-11.776a245.76 245.76 0 0 1 43.008-29.184 177.152 177.152 0 0 1 26.112-10.24l17.408-5.12a199.68 199.68 0 0 1 51.2 0z m0 0" fill="currentColor" p-id="4432"></path></svg>