<svg class="h-6" height="1em" fill="currentColor" viewBox="0 0 196 36"><path fill="none" d="M0 0h196v36H0z"></path><path d="M195.036 10.656q-.504.108-1.367.396-.828.288-1.513.612-.455.192-.606.32l.03.076q.612 1.692.612 3.744.0 2.124-.576 3.78-.54 1.62-1.836 2.52-1.26.9-3.456.9-1.194.0-2.137-.296-.155.23-.346.548-.324.504-.324 1.008.0.396.395.648.432.252 1.332.324l3.492.325q2.448.215 3.636 1.475t1.189 3.6q0 1.728-.829 2.916-.792 1.188-2.412 1.764-1.62.612-4.139.612-1.908.0-3.456-.432-1.513-.396-2.413-1.26-.864-.864-.864-2.268.0-1.08.504-1.907a5 5 0 011.296-1.369q.578-.42 1.194-.707-.902-.236-1.41-.77-.684-.72-.683-1.583.0-1.296.719-2.196a18 18 0 011.529-1.573q-1.129-.904-1.708-2.386-.613-1.657-.613-3.78.0-2.413.685-4.033.684-1.656 2.016-2.484 1.367-.864 3.347-.864 2.053.0 3.349 1.044.597.466 1.049 1.08.345-.443 1.146-1.044a10.8 10.8.0 012.16-1.26zm-10.584 17.63a16 16 0 00-.647.658 5 5 0 00-.72.9 2.14 2.14.0 00-.288 1.08q0 .936.792 1.404.828.468 2.916.468 2.051.0 3.023-.504 1.008-.468 1.008-1.512.0-.648-.252-1.08-.252-.396-.863-.648-.613-.252-1.765-.36zM77.378.0q2.953.0 4.68 1.116 1.728 1.116 2.484 3.168.792 2.052.792 4.932v11.088q0 2.844-.792 4.969-.756 2.124-2.483 3.311-1.728 1.152-4.681 1.152-2.952.0-4.716-1.152-1.763-1.152-2.52-3.275-.755-2.16-.756-5.04V9.216q0-2.88.757-4.932.791-2.088 2.52-3.168Q74.425.0 77.377.0m44.063 8.316q2.592.0 3.96 1.62 1.368 1.584 1.584 3.852l-2.735.972a9 9 0 00-.433-1.872q-.288-.828-.827-1.26-.54-.468-1.404-.468-.936.0-1.512.649-.54.612-.54 1.475.0.54.216 1.08.252.504.828 1.008l3.672 3.384q.756.684 1.404 1.476a6.9 6.9.0 011.116 1.8q.432 1.008.432 2.34.0 1.764-.721 2.952a4.6 4.6.0 01-2.015 1.8q-1.296.576-3.025.576-2.555.0-4.103-1.584-1.548-1.62-1.764-4.248l3.203-.971q.288 1.98.973 2.987.684.972 2.016.972 1.044.0 1.584-.576.54-.612.54-1.62.0-.9-.396-1.62t-1.296-1.476l-3.564-3.06a10 10 0 01-1.836-2.088q-.72-1.152-.72-2.988.0-1.656.648-2.772a4.34 4.34.0 011.872-1.728q1.224-.612 2.843-.612m49.698.0q2.303.0 3.599.936 1.332.936 1.872 2.664.576 1.728.577 4.068v6.048q0 2.34-.577 4.069-.54 1.727-1.872 2.663-1.296.936-3.599.936t-3.636-.936q-1.332-.936-1.908-2.663-.54-1.729-.54-4.069v-6.048q0-2.34.54-4.068.576-1.728 1.908-2.664t3.636-.936M11.305 3.276H4.068v9.648h5.869v2.88H4.068v10.692h7.308v2.916H0V.252h11.305zM29.42 29.412h-3.853l-1.332-7.344h-5.94l-1.403 7.344h-3.817L19.27.252h3.923zm7.026-2.916H43.9v2.916H32.38V.252h4.068zm14.309.0h7.452v2.916h-11.52V.252h4.068zm14.453 2.916h-3.996V.252h3.996zM101.133.062q1.449.0 2.449.75 1 .7 1.5 2.1.5 1.35.5 3.3v23.2h-3.649v-22.4q0-2.25-.701-3.15-.65-.95-2.05-.95-1.25.0-2.55.75t-2.45 1.95v23.8h-3.65V.512h3.65v3a12.4 12.4.0 013.15-2.45 7.53 7.53.0 013.801-1m44.196.19q1.98.0 3.42.433 1.476.431 2.448 1.33.972.901 1.441 2.305.468 1.369.467 3.24.0 1.8-.467 3.132-.433 1.296-1.368 2.052-.9.756-2.34.972 1.764.396 2.843 1.368 1.08.936 1.584 2.448.54 1.476.54 3.564.0 1.872-.432 3.42-.431 1.548-1.367 2.629-.9 1.08-2.341 1.69-1.404.577-3.348.577h-7.776V.252zm16.071 29.16h-3.852V.252h3.852zm9.739-18.252q-1.116.0-1.584.684-.468.648-.576 1.692-.073 1.044-.073 2.233v6.515q0 1.152.073 2.232.108 1.044.576 1.692t1.584.648 1.548-.648q.468-.648.54-1.692.108-1.08.108-2.232V15.77q0-1.188-.108-2.233-.072-1.044-.54-1.692-.434-.684-1.548-.684M77.378 3.168q-1.62.0-2.484.648-.828.612-1.116 1.8-.288 1.152-.288 2.772v12.78q0 1.62.288 2.844.288 1.188 1.116 1.872.864.648 2.484.648t2.448-.648q.828-.684 1.116-1.872.288-1.224.289-2.844V8.388q0-1.62-.289-2.772-.288-1.188-1.116-1.8-.828-.648-2.448-.648M142.7 26.496h2.737q2.735.0 3.635-1.26.936-1.296.936-4.14.0-1.836-.504-3.06-.468-1.26-1.548-1.872-1.044-.648-2.844-.648H142.7zm43.659-15.444q-.792.0-1.296.324-.467.288-.755.9-.252.576-.361 1.44a24 24 0 00-.071 1.98q0 .972.071 1.8.109.829.361 1.44.252.612.719.972.504.324 1.296.324.793.0 1.261-.288.468-.324.684-.9.252-.576.324-1.404.107-.864.107-1.944t-.071-1.944q-.072-.864-.324-1.44-.252-.611-.72-.936-.469-.324-1.225-.324m-167.523 8.1h4.86l-2.448-13.14zM142.7 12.42h2.412q1.728.0 2.7-.468.972-.504 1.369-1.584.395-1.08.395-2.807.0-2.016-.612-2.916t-1.907-1.117q-1.296-.252-3.385-.252h-.972zm-28.64-8.676q0 2.808-.792 4.392-.793 1.548-2.773 1.656l-.684-1.44q1.116-.072 1.512-1.043.433-.972.433-2.989h-1.908V.252h4.212z"></path></svg>
