<?xml version="1.0" standalone="no"?><!DOCTYPE svg PUBLIC "-//W3C//DTD SVG 1.1//EN" "http://www.w3.org/Graphics/SVG/1.1/DTD/svg11.dtd"><svg t="1722963457027" class="icon" viewBox="0 0 1024 1024" version="1.1" xmlns="http://www.w3.org/2000/svg" p-id="4390" width="256" height="256" xmlns:xlink="http://www.w3.org/1999/xlink"><path d="M973.952 981.12L971.946667 981.333333H52.138667a9.258667 9.258667 0 0 1-7.381334-3.413333 8.96 8.96 0 0 1-1.834666-3.626667L42.666667 972.202667l0.213333-2.048 97.92-382.293334a8.96 8.96 0 0 1 3.328-4.650666 9.386667 9.386667 0 0 1 5.504-1.792 9.386667 9.386667 0 0 1 7.978667 4.693333l0.768 1.706667 37.205333 145.152 117.845333-461.653334a8.96 8.96 0 0 1 1.92-3.328l1.408-1.28a9.386667 9.386667 0 0 1 5.546667-1.834666 9.386667 9.386667 0 0 1 7.978667 4.693333l0.768 1.749333 68.224 266.666667 42.752-165.034667a8.96 8.96 0 0 1 1.92-3.328l1.408-1.28a9.386667 9.386667 0 0 1 5.461333-1.834666 9.386667 9.386667 0 0 1 8.064 4.693333l0.768 1.749333 28.757333 111.018667 115.114667-434.858667a8.96 8.96 0 0 1 3.328-4.650666 9.386667 9.386667 0 0 1 5.461333-1.792 9.386667 9.386667 0 0 1 8.064 4.693333l0.768 1.749333 165.12 622.677334 50.133334-195.925334a8.96 8.96 0 0 1 1.834666-3.413333l1.493334-1.365333a9.216 9.216 0 0 1 13.610666 2.986666l0.768 1.792 127.018667 494.293334a8.661333 8.661333 0 0 1-0.042667 4.138666 9.216 9.216 0 0 1-5.12 6.229334l-2.005333 0.597333z" fill="currentColor" p-id="4391"></path></svg>